<svg id="svg" xmlns="http://www.w3.org/2000/svg" xmlns:xlink="http://www.w3.org/1999/xlink" width="400" height="160.0479904019196" viewBox="0, 0, 400,160.0479904019196" version="1.1"><g id="svgg"><path id="path0" d="M203.339 5.089 C 203.021 5.231,202.721 5.401,202.672 5.466 C 202.623 5.530,202.171 5.789,201.667 6.040 C 200.201 6.770,197.602 8.181,197.375 8.368 C 197.260 8.463,197.167 8.490,197.167 8.429 C 197.167 8.295,194.961 9.499,194.815 9.713 C 194.759 9.795,194.646 9.865,194.565 9.870 C 194.189 9.890,192.696 10.745,192.785 10.889 C 192.840 10.979,192.805 11.002,192.708 10.942 C 192.522 10.827,190.456 11.916,190.361 12.181 C 190.330 12.266,190.234 12.292,190.148 12.239 C 189.973 12.131,186.820 13.762,186.628 14.061 C 186.560 14.165,186.504 14.201,186.503 14.141 C 186.501 14.080,185.757 14.429,184.850 14.916 C 183.942 15.402,183.042 15.850,182.850 15.911 C 182.657 15.973,182.500 16.097,182.500 16.188 C 182.500 16.279,182.431 16.310,182.347 16.258 C 182.262 16.206,182.075 16.282,181.930 16.427 C 181.785 16.572,181.666 16.629,181.664 16.554 C 181.663 16.478,181.606 16.492,181.539 16.583 C 181.472 16.675,180.835 17.031,180.125 17.374 C 179.415 17.717,178.833 18.073,178.833 18.165 C 178.833 18.258,178.777 18.318,178.708 18.300 C 178.481 18.240,177.833 18.520,177.833 18.678 C 177.833 18.763,177.777 18.819,177.708 18.802 C 177.450 18.738,175.356 19.902,175.452 20.057 C 175.507 20.146,175.468 20.166,175.365 20.103 C 175.175 19.986,173.499 20.748,173.315 21.036 C 173.259 21.124,173.165 21.189,173.106 21.181 C 172.812 21.142,172.672 21.184,172.470 21.375 C 172.349 21.490,171.912 21.752,171.500 21.957 C 170.745 22.334,170.154 22.679,170.000 22.833 C 169.954 22.879,169.835 22.931,169.736 22.949 C 169.332 23.022,166.672 24.452,166.750 24.555 C 166.796 24.617,166.787 24.633,166.730 24.591 C 166.610 24.503,165.038 25.265,164.667 25.590 C 164.529 25.711,164.355 25.806,164.281 25.801 C 164.095 25.790,160.971 27.520,160.698 27.785 C 160.446 28.029,160.573 28.333,160.927 28.333 C 161.059 28.333,161.167 28.395,161.167 28.471 C 161.167 28.547,161.616 28.828,162.166 29.096 C 162.716 29.364,163.166 29.630,163.166 29.688 C 163.166 29.746,163.410 29.893,163.708 30.015 C 164.006 30.138,164.497 30.405,164.800 30.609 C 165.102 30.813,165.627 31.068,165.967 31.177 C 166.306 31.286,166.733 31.496,166.917 31.646 C 167.306 31.962,167.804 32.261,168.811 32.781 C 169.210 32.988,169.642 33.243,169.769 33.349 C 169.896 33.454,170.001 33.475,170.003 33.395 C 170.004 33.315,170.060 33.331,170.128 33.431 C 170.327 33.725,171.769 34.509,171.889 34.389 C 171.950 34.328,172.000 34.365,172.000 34.472 C 172.000 34.579,172.100 34.667,172.223 34.667 C 172.775 34.667,172.831 35.434,172.837 43.018 L 172.842 50.524 172.320 51.012 C 172.033 51.280,171.735 51.500,171.657 51.500 C 170.619 51.500,169.498 56.390,170.048 58.516 C 170.143 58.881,170.004 59.129,169.164 60.099 C 168.616 60.732,168.168 61.307,168.167 61.376 C 168.167 61.446,167.984 61.708,167.761 61.960 C 166.768 63.079,163.591 68.265,163.474 68.957 C 163.463 69.027,163.356 69.233,163.238 69.417 C 162.922 69.907,162.162 72.000,162.299 72.003 C 162.364 72.004,162.338 72.060,162.241 72.128 C 162.084 72.238,161.534 73.531,161.426 74.046 C 161.403 74.158,161.338 74.362,161.283 74.500 C 160.570 76.275,159.155 82.630,159.523 82.402 C 159.602 82.354,159.667 82.393,159.667 82.490 C 159.667 82.587,159.593 82.667,159.502 82.667 C 159.411 82.667,159.331 82.835,159.324 83.042 C 159.317 83.248,159.267 83.942,159.211 84.583 C 158.864 88.620,159.404 96.567,160.102 97.697 C 160.150 97.775,160.224 98.044,160.267 98.294 C 160.410 99.143,161.048 101.167,161.172 101.167 C 161.241 101.167,161.286 101.295,161.273 101.452 C 161.249 101.752,162.729 102.286,164.059 102.456 C 164.759 102.546,164.766 102.511,164.285 101.333 C 164.192 101.104,164.097 100.826,164.073 100.715 C 164.050 100.603,163.881 100.041,163.697 99.465 C 163.513 98.888,163.306 98.192,163.237 97.917 C 163.167 97.642,163.099 97.379,163.084 97.333 C 163.070 97.287,162.999 96.893,162.927 96.456 C 162.854 96.020,162.727 95.621,162.645 95.570 C 162.562 95.519,162.535 95.412,162.584 95.333 C 162.633 95.253,162.591 94.827,162.491 94.386 C 162.391 93.944,162.273 92.740,162.229 91.708 L 162.149 89.833 170.663 89.833 C 177.325 89.833,179.193 89.879,179.249 90.042 C 179.289 90.156,179.357 90.850,179.401 91.583 C 179.547 94.039,179.671 95.161,179.924 96.333 C 179.974 96.563,180.010 96.956,180.004 97.208 C 179.999 97.460,180.058 97.667,180.136 97.667 C 180.214 97.667,180.265 97.835,180.250 98.040 C 180.197 98.757,180.520 99.662,180.811 99.611 C 181.250 99.533,183.171 98.795,183.245 98.676 C 183.282 98.615,183.158 97.708,182.969 96.658 C 182.780 95.609,182.632 94.544,182.639 94.292 C 182.647 94.040,182.600 93.833,182.535 93.833 C 182.470 93.833,182.413 93.515,182.409 93.125 C 182.405 92.735,182.356 91.817,182.299 91.083 L 182.196 89.750 190.056 89.791 C 194.380 89.813,198.029 89.783,198.167 89.723 C 198.304 89.663,198.485 89.630,198.568 89.649 C 198.651 89.668,198.773 89.598,198.839 89.492 C 198.926 89.350,199.048 89.347,199.297 89.481 C 199.484 89.581,200.037 89.693,200.527 89.731 C 201.222 89.785,201.430 89.867,201.478 90.104 C 201.547 90.447,202.013 90.845,202.206 90.725 C 202.276 90.682,202.333 90.718,202.333 90.806 C 202.333 91.025,202.777 91.179,203.708 91.283 L 204.500 91.371 204.500 90.602 L 204.500 89.833 205.683 89.833 C 206.792 89.833,207.521 89.571,208.000 89.000 C 208.046 88.945,208.328 88.730,208.627 88.521 C 208.926 88.312,209.121 88.060,209.060 87.962 C 208.994 87.855,209.027 87.830,209.141 87.901 C 209.247 87.966,209.333 87.928,209.333 87.815 C 209.333 87.703,209.379 87.657,209.435 87.712 C 209.598 87.876,210.386 87.054,210.261 86.851 C 210.185 86.728,209.207 86.667,207.323 86.667 L 204.500 86.667 204.498 85.625 C 204.476 76.562,204.515 70.632,204.599 70.214 C 204.720 69.610,204.966 69.516,206.736 69.406 C 207.749 69.343,208.281 69.289,208.875 69.188 C 209.163 69.139,208.949 68.723,208.087 67.657 L 207.174 66.527 206.129 66.529 C 205.554 66.530,204.952 66.524,204.792 66.515 C 204.504 66.500,204.306 49.000,204.593 49.000 C 204.759 49.000,206.037 50.057,207.214 51.167 C 207.846 51.762,208.528 52.352,208.730 52.476 C 208.932 52.600,209.225 52.924,209.381 53.195 C 209.536 53.466,209.739 53.641,209.832 53.584 C 209.924 53.527,210.000 53.559,210.000 53.655 C 210.000 53.882,213.183 57.667,213.374 57.667 C 213.454 57.667,213.476 57.737,213.424 57.822 C 213.371 57.907,213.474 58.079,213.652 58.204 C 213.830 58.329,214.068 58.634,214.181 58.882 C 214.294 59.130,214.450 59.333,214.527 59.333 C 214.604 59.333,214.667 59.419,214.667 59.523 C 214.667 59.628,214.798 59.821,214.958 59.952 C 215.119 60.084,215.151 60.140,215.029 60.078 C 214.847 59.985,214.846 60.025,215.028 60.316 C 215.148 60.509,215.304 60.667,215.373 60.667 C 215.443 60.667,215.500 60.746,215.500 60.842 C 215.500 61.110,216.265 62.176,216.390 62.082 C 216.450 62.037,216.465 62.047,216.423 62.105 C 216.349 62.205,217.117 63.656,217.337 63.833 C 217.394 63.879,217.489 64.048,217.549 64.208 C 217.655 64.497,218.172 64.606,218.392 64.385 C 218.455 64.323,218.637 64.255,218.795 64.236 C 218.954 64.216,219.421 64.151,219.833 64.091 C 220.771 63.954,221.572 64.399,221.929 65.254 C 222.071 65.594,222.288 65.833,222.455 65.833 C 222.961 65.833,224.164 65.296,224.054 65.120 C 223.995 65.023,224.030 64.999,224.135 65.064 C 224.293 65.161,224.858 64.927,226.667 64.014 C 228.337 63.170,230.619 61.916,230.751 61.770 C 230.843 61.667,231.022 61.561,231.148 61.534 C 231.275 61.507,231.717 61.252,232.131 60.967 C 232.859 60.466,232.892 60.460,233.120 60.766 C 233.250 60.941,233.432 61.063,233.524 61.038 C 233.616 61.012,233.653 61.053,233.607 61.129 C 233.560 61.204,233.889 61.658,234.338 62.139 C 234.787 62.619,235.151 63.051,235.149 63.099 C 235.146 63.146,235.299 63.387,235.489 63.634 C 235.679 63.881,236.242 64.646,236.741 65.333 C 237.240 66.021,237.708 66.661,237.782 66.757 C 237.856 66.852,237.936 67.023,237.960 67.138 C 238.066 67.640,239.054 69.167,239.274 69.167 C 239.630 69.167,240.500 68.685,240.500 68.488 C 240.500 68.395,240.594 68.337,240.708 68.359 C 241.081 68.430,241.667 68.150,241.667 67.900 C 241.667 67.588,240.838 65.935,240.645 65.861 C 240.565 65.831,240.500 65.715,240.500 65.603 C 240.500 65.375,239.028 63.094,238.551 62.583 C 238.379 62.400,238.067 61.969,237.856 61.625 C 237.645 61.281,237.400 61.000,237.310 61.000 C 237.220 61.000,237.190 60.930,237.243 60.845 C 237.296 60.759,237.201 60.591,237.033 60.470 C 236.865 60.349,236.679 60.119,236.619 59.958 C 236.559 59.798,236.383 59.667,236.227 59.667 C 236.072 59.667,235.994 59.617,236.054 59.557 C 236.114 59.497,235.527 58.809,234.748 58.029 C 233.970 57.249,233.333 56.558,233.333 56.493 C 233.333 56.427,232.902 56.031,232.375 55.613 C 231.848 55.194,231.301 54.753,231.159 54.634 C 231.017 54.514,230.480 54.060,229.966 53.625 C 229.451 53.190,228.948 52.833,228.848 52.833 C 228.748 52.833,228.667 52.767,228.667 52.686 C 228.667 52.524,226.824 51.288,226.167 51.010 C 225.679 50.804,225.190 50.501,224.869 50.207 C 224.743 50.091,224.571 50.040,224.487 50.092 C 224.402 50.144,224.333 50.107,224.333 50.009 C 224.333 49.603,217.878 46.737,217.519 46.984 C 217.483 47.008,217.408 46.958,217.352 46.872 C 217.212 46.657,216.087 46.294,213.333 45.575 C 211.540 45.106,209.463 44.725,207.737 44.548 C 205.333 44.301,197.326 44.445,196.842 44.745 C 196.788 44.778,196.442 44.851,196.073 44.906 C 195.705 44.961,195.219 45.042,194.993 45.086 C 194.768 45.129,194.321 45.213,194.000 45.271 C 193.679 45.329,193.342 45.432,193.250 45.499 C 193.158 45.566,192.971 45.622,192.833 45.622 C 192.408 45.624,190.428 46.187,190.208 46.369 C 190.094 46.463,190.000 46.498,190.000 46.446 C 190.000 46.394,189.569 46.503,189.042 46.689 C 188.515 46.875,188.008 47.042,187.917 47.060 C 187.825 47.078,187.637 47.164,187.500 47.250 C 187.362 47.337,187.066 47.433,186.842 47.464 C 186.617 47.495,186.242 47.616,186.009 47.733 C 185.775 47.851,184.833 48.306,183.917 48.746 C 183.000 49.186,182.075 49.705,181.862 49.898 C 181.648 50.092,181.440 50.228,181.400 50.202 C 181.271 50.117,180.167 50.699,180.167 50.852 C 180.167 50.934,180.031 51.000,179.865 51.000 C 179.699 51.000,179.402 51.150,179.205 51.333 C 179.008 51.517,178.775 51.667,178.688 51.667 C 178.600 51.667,178.503 51.726,178.472 51.798 C 178.442 51.870,178.079 52.133,177.667 52.382 C 177.254 52.632,176.744 52.960,176.533 53.111 C 176.322 53.262,176.169 53.318,176.193 53.234 C 176.282 52.925,175.623 51.846,174.982 51.253 C 174.617 50.916,174.276 50.421,174.222 50.150 C 174.168 49.880,174.058 49.619,173.978 49.570 C 173.774 49.444,173.797 47.936,174.006 47.727 C 174.121 47.612,174.163 45.582,174.131 41.694 C 174.105 38.470,174.106 35.833,174.133 35.833 C 174.161 35.833,174.404 35.947,174.673 36.087 C 174.943 36.226,175.183 36.330,175.207 36.319 C 175.230 36.307,175.794 36.562,176.458 36.885 C 177.123 37.209,177.667 37.430,177.667 37.377 C 177.667 37.325,177.817 37.418,178.001 37.584 C 178.185 37.751,178.381 37.841,178.438 37.785 C 178.494 37.729,178.653 37.796,178.791 37.934 C 178.930 38.073,179.146 38.146,179.271 38.098 C 179.397 38.050,179.500 38.081,179.500 38.168 C 179.500 38.392,180.489 38.873,180.747 38.774 C 180.913 38.710,180.977 37.825,181.023 34.963 C 181.091 30.764,181.131 30.614,182.336 29.999 C 182.701 29.812,183.000 29.586,183.000 29.497 C 183.000 29.407,183.136 29.333,183.302 29.333 C 183.468 29.333,183.768 29.180,183.969 28.994 C 184.169 28.807,184.333 28.693,184.333 28.741 C 184.333 28.789,184.765 28.614,185.292 28.351 C 185.819 28.089,186.625 27.738,187.083 27.571 C 187.542 27.404,187.954 27.226,188.000 27.175 C 188.046 27.125,188.177 27.076,188.292 27.067 C 188.925 27.016,189.012 26.987,188.931 26.857 C 188.882 26.778,189.028 26.734,189.255 26.759 C 189.481 26.784,189.667 26.754,189.667 26.694 C 189.667 26.633,189.871 26.571,190.120 26.557 C 190.369 26.543,190.599 26.453,190.631 26.358 C 190.662 26.263,190.783 26.222,190.899 26.266 C 191.014 26.311,191.328 26.259,191.596 26.151 C 191.864 26.043,192.252 25.933,192.458 25.906 C 192.664 25.878,192.976 25.810,193.153 25.754 C 193.542 25.631,194.058 25.523,194.833 25.404 C 195.154 25.355,195.642 25.251,195.917 25.172 C 196.192 25.094,196.529 25.028,196.667 25.026 C 196.804 25.023,197.217 24.987,197.583 24.945 C 200.928 24.564,207.374 24.530,207.957 24.890 C 208.038 24.940,208.662 25.021,209.344 25.071 C 210.025 25.120,210.861 25.228,211.200 25.311 C 211.539 25.393,211.851 25.426,211.894 25.384 C 211.937 25.341,212.117 25.384,212.295 25.479 C 212.472 25.574,212.873 25.683,213.184 25.721 C 213.495 25.758,213.862 25.830,214.000 25.880 C 214.269 25.978,218.473 27.172,218.750 27.229 C 218.842 27.248,219.363 27.469,219.909 27.721 C 220.454 27.973,221.028 28.198,221.184 28.222 C 221.340 28.246,221.776 28.479,222.153 28.741 C 222.531 29.002,222.882 29.174,222.934 29.122 C 222.986 29.070,223.203 29.179,223.416 29.364 C 223.629 29.549,223.858 29.687,223.925 29.670 C 223.992 29.652,224.092 29.706,224.148 29.788 C 224.294 30.004,225.833 31.035,225.833 30.918 C 225.833 30.864,226.034 31.006,226.280 31.234 C 226.526 31.462,226.791 31.610,226.868 31.562 C 226.945 31.514,226.990 31.537,226.967 31.613 C 226.944 31.688,227.064 31.956,227.232 32.208 C 227.501 32.611,227.538 33.029,227.535 35.678 C 227.531 39.191,227.501 39.140,229.038 38.284 C 229.613 37.964,230.608 37.421,231.250 37.078 C 231.892 36.734,232.442 36.388,232.473 36.309 C 232.503 36.230,232.591 36.203,232.667 36.250 C 232.744 36.298,232.906 36.239,233.028 36.119 C 233.150 36.000,233.494 35.803,233.792 35.681 C 234.090 35.559,234.333 35.394,234.333 35.313 C 234.333 35.233,234.394 35.185,234.467 35.208 C 234.663 35.269,235.894 34.619,236.052 34.371 C 236.126 34.255,236.257 34.203,236.343 34.256 C 236.562 34.391,238.164 33.465,238.046 33.272 C 237.992 33.186,238.028 33.164,238.124 33.224 C 238.328 33.350,240.667 32.191,240.667 31.965 C 240.667 31.882,240.733 31.855,240.814 31.905 C 240.896 31.955,241.055 31.885,241.168 31.748 C 241.281 31.612,241.442 31.500,241.524 31.500 C 241.895 31.500,243.813 30.435,243.718 30.281 C 243.653 30.177,243.721 30.152,243.889 30.216 C 244.048 30.277,244.167 30.242,244.167 30.134 C 244.167 30.030,244.213 29.991,244.271 30.048 C 244.369 30.147,245.656 29.572,245.833 29.351 C 245.879 29.293,246.310 29.066,246.792 28.845 C 247.273 28.624,247.667 28.376,247.667 28.295 C 247.667 28.214,247.749 28.198,247.849 28.260 C 247.963 28.330,248.009 28.255,247.972 28.061 C 247.907 27.719,246.356 26.800,246.105 26.955 C 246.019 27.008,245.993 26.979,246.047 26.891 C 246.102 26.803,245.495 26.399,244.698 25.992 C 243.902 25.586,243.137 25.165,243.000 25.057 C 242.862 24.948,242.637 24.835,242.500 24.805 C 242.362 24.775,242.213 24.712,242.167 24.667 C 241.946 24.446,240.673 23.833,240.436 23.833 C 240.288 23.833,240.167 23.758,240.167 23.667 C 240.167 23.575,240.096 23.500,240.009 23.500 C 239.922 23.500,239.153 23.113,238.300 22.640 C 237.448 22.167,235.887 21.335,234.833 20.792 C 232.125 19.395,229.814 18.159,229.375 17.873 C 229.169 17.738,228.999 17.693,228.997 17.772 C 228.996 17.852,228.940 17.832,228.872 17.728 C 228.708 17.476,225.834 15.957,225.831 16.121 C 225.829 16.192,225.773 16.174,225.706 16.082 C 225.638 15.989,225.285 15.764,224.921 15.582 C 224.557 15.399,223.901 15.046,223.463 14.796 C 223.025 14.546,222.666 14.396,222.664 14.463 C 222.663 14.529,222.606 14.508,222.539 14.417 C 222.264 14.042,217.583 11.639,217.429 11.793 C 217.376 11.846,217.333 11.809,217.333 11.712 C 217.333 11.614,217.052 11.392,216.708 11.217 C 216.365 11.042,215.596 10.644,215.000 10.333 C 214.404 10.022,213.860 9.782,213.792 9.800 C 213.723 9.818,213.667 9.765,213.667 9.681 C 213.667 9.597,212.710 9.048,211.542 8.462 C 210.373 7.875,208.412 6.850,207.184 6.183 C 204.738 4.855,204.202 4.703,203.339 5.089 M199.833 27.937 C 197.130 28.170,192.926 28.891,192.568 29.182 C 192.468 29.264,192.345 29.290,192.296 29.240 C 192.199 29.143,188.141 30.418,187.583 30.720 C 187.400 30.819,187.175 30.918,187.083 30.940 C 185.871 31.225,183.089 32.740,183.263 33.021 C 183.312 33.101,183.270 33.167,183.168 33.167 C 182.581 33.167,182.063 46.711,182.637 47.065 C 182.769 47.146,184.090 46.710,184.795 46.353 C 185.488 46.001,186.654 45.529,187.532 45.245 C 188.054 45.076,188.436 44.865,188.381 44.776 C 188.327 44.688,188.362 44.665,188.460 44.725 C 188.558 44.786,188.851 44.748,189.111 44.640 C 189.707 44.394,189.637 44.414,190.375 44.260 C 190.719 44.188,191.000 44.058,191.000 43.972 C 191.000 43.885,191.058 43.849,191.128 43.893 C 191.199 43.937,191.651 43.833,192.132 43.664 C 192.614 43.494,193.045 43.357,193.090 43.359 C 193.297 43.367,194.598 43.120,194.715 43.050 C 194.788 43.007,195.254 42.947,195.750 42.916 C 196.247 42.886,196.740 42.808,196.846 42.742 C 196.952 42.676,197.349 42.604,197.728 42.581 C 198.107 42.559,198.829 42.492,199.333 42.433 C 199.838 42.374,200.790 42.327,201.449 42.329 C 202.108 42.330,202.694 42.257,202.750 42.166 C 202.886 41.946,204.117 41.952,204.254 42.174 C 204.393 42.399,205.833 42.326,205.836 42.094 C 205.837 41.988,205.890 41.998,205.966 42.117 C 206.036 42.228,206.241 42.309,206.422 42.297 C 206.602 42.286,206.928 42.335,207.146 42.406 C 207.420 42.496,207.507 42.479,207.428 42.351 C 207.365 42.250,207.393 42.167,207.490 42.167 C 207.587 42.167,207.667 42.241,207.667 42.331 C 207.667 42.422,207.835 42.501,208.042 42.507 C 208.796 42.527,209.756 42.633,210.000 42.723 C 210.137 42.773,210.813 42.903,211.500 43.010 C 212.188 43.118,212.862 43.224,213.000 43.246 C 213.137 43.269,213.362 43.327,213.500 43.375 C 215.502 44.083,217.907 44.807,218.021 44.737 C 218.101 44.687,218.167 44.717,218.167 44.803 C 218.167 44.889,218.373 45.037,218.625 45.131 C 218.877 45.225,219.233 45.359,219.417 45.428 C 219.600 45.498,219.787 45.566,219.833 45.580 C 220.199 45.692,224.378 47.709,224.500 47.832 C 224.742 48.077,225.705 48.518,225.796 48.426 C 226.025 48.198,225.950 35.786,225.716 34.966 C 225.514 34.260,224.353 33.084,223.856 33.083 C 223.798 33.083,223.510 32.911,223.216 32.702 C 222.781 32.392,221.343 31.662,221.000 31.577 C 220.954 31.565,220.542 31.385,220.083 31.175 C 217.540 30.012,212.668 28.607,210.550 28.426 C 210.110 28.388,209.637 28.317,209.500 28.267 C 208.861 28.035,201.578 27.786,199.833 27.937 M173.958 44.719 C 173.930 46.203,173.908 44.942,173.908 41.917 C 173.908 38.892,173.931 37.678,173.958 39.219 C 173.986 40.760,173.986 43.235,173.958 44.719 M197.524 48.066 C 196.582 48.762,193.348 52.056,193.449 52.219 C 193.505 52.310,193.473 52.336,193.378 52.277 C 193.282 52.218,193.018 52.413,192.791 52.710 C 192.565 53.007,192.144 53.501,191.857 53.809 C 191.570 54.116,191.383 54.446,191.443 54.543 C 191.505 54.643,191.472 54.669,191.366 54.604 C 191.262 54.539,191.051 54.692,190.884 54.953 C 190.721 55.208,190.492 55.516,190.376 55.638 C 190.259 55.760,190.213 55.941,190.274 56.039 C 190.340 56.145,190.306 56.170,190.192 56.099 C 190.078 56.028,189.931 56.136,189.830 56.365 C 189.737 56.577,189.362 57.125,188.998 57.583 C 188.633 58.042,188.335 58.510,188.334 58.625 C 188.334 58.740,188.264 58.833,188.179 58.833 C 188.011 58.833,186.495 61.186,186.437 61.536 C 186.410 61.696,185.684 62.954,185.426 63.288 C 185.410 63.308,185.003 63.176,184.521 62.993 C 184.040 62.810,183.575 62.703,183.489 62.757 C 183.404 62.810,183.333 62.779,183.333 62.689 C 183.333 62.599,183.070 62.439,182.749 62.333 C 182.427 62.227,181.631 61.847,180.980 61.489 C 180.328 61.131,179.717 60.886,179.622 60.945 C 179.526 61.003,179.496 60.975,179.553 60.882 C 179.611 60.789,179.341 60.573,178.954 60.401 C 178.567 60.230,178.151 59.994,178.030 59.878 C 177.909 59.762,177.702 59.667,177.571 59.667 C 177.440 59.667,177.333 59.592,177.333 59.500 C 177.333 59.408,177.245 59.333,177.138 59.333 C 176.714 59.333,176.336 58.807,176.517 58.469 C 176.612 58.291,176.667 57.933,176.640 57.674 C 176.592 57.213,177.729 55.833,178.157 55.833 C 178.244 55.833,178.419 55.684,178.547 55.501 C 178.675 55.318,178.815 55.204,178.858 55.247 C 178.900 55.289,179.180 55.101,179.478 54.829 C 179.776 54.556,180.131 54.333,180.266 54.333 C 180.400 54.333,180.579 54.165,180.661 53.958 C 180.744 53.752,180.817 53.682,180.823 53.802 C 180.829 53.921,180.910 53.973,181.003 53.915 C 181.096 53.857,181.122 53.729,181.060 53.629 C 180.997 53.527,181.025 53.496,181.124 53.557 C 181.221 53.617,181.777 53.377,182.359 53.023 C 182.941 52.670,183.824 52.175,184.321 51.922 C 184.819 51.670,185.331 51.360,185.458 51.232 C 185.586 51.104,185.818 51.000,185.975 51.000 C 186.131 51.000,186.426 50.883,186.630 50.741 C 186.833 50.598,187.000 50.516,187.000 50.560 C 187.000 50.603,187.394 50.493,187.875 50.315 C 189.520 49.708,192.082 48.888,193.250 48.596 C 193.892 48.436,194.529 48.265,194.667 48.216 C 194.804 48.168,195.179 48.100,195.500 48.065 C 195.821 48.030,196.291 47.945,196.544 47.876 C 196.798 47.806,197.229 47.742,197.502 47.732 L 198.000 47.715 197.524 48.066 M209.750 47.923 C 210.025 47.945,210.250 47.980,210.250 48.002 C 210.250 48.024,210.400 48.069,210.583 48.101 C 211.027 48.178,213.413 48.767,214.250 49.005 C 214.617 49.110,215.048 49.205,215.208 49.217 C 215.369 49.228,215.500 49.297,215.500 49.369 C 215.500 49.441,215.556 49.488,215.625 49.474 C 215.694 49.459,215.900 49.508,216.083 49.583 C 216.920 49.925,218.099 50.372,218.250 50.405 C 218.342 50.425,218.686 50.558,219.015 50.701 C 219.343 50.843,219.788 51.016,220.003 51.084 C 220.218 51.153,220.624 51.349,220.905 51.520 C 221.187 51.692,221.540 51.832,221.691 51.833 C 221.841 51.833,222.008 51.946,222.060 52.083 C 222.113 52.221,222.230 52.333,222.320 52.333 C 222.410 52.333,222.806 52.549,223.200 52.814 C 223.594 53.078,224.179 53.435,224.500 53.608 C 225.390 54.086,227.042 55.244,228.142 56.159 C 228.685 56.611,229.176 56.936,229.232 56.880 C 229.288 56.824,229.333 56.870,229.333 56.982 C 229.333 57.098,229.423 57.135,229.542 57.066 C 229.656 57.001,229.694 57.009,229.625 57.085 C 229.452 57.276,230.001 57.851,230.231 57.719 C 230.333 57.661,230.361 57.675,230.293 57.750 C 230.225 57.825,230.244 57.975,230.334 58.085 C 230.516 58.304,229.970 59.081,229.773 58.884 C 229.712 58.823,229.442 58.937,229.171 59.137 C 228.901 59.337,228.598 59.500,228.497 59.500 C 228.396 59.500,228.367 59.587,228.433 59.692 C 228.504 59.807,228.479 59.840,228.371 59.773 C 228.271 59.712,227.796 59.894,227.315 60.178 C 225.797 61.072,222.573 62.667,222.280 62.667 C 222.126 62.667,222.000 62.754,222.000 62.861 C 222.000 62.968,221.953 63.009,221.895 62.951 C 221.838 62.894,221.531 62.955,221.213 63.088 C 220.663 63.318,219.796 63.093,220.091 62.798 C 220.194 62.695,219.013 60.612,218.805 60.528 C 218.729 60.497,218.667 60.400,218.667 60.311 C 218.667 60.223,218.367 59.699,218.000 59.147 C 217.633 58.595,217.333 58.101,217.333 58.049 C 217.333 57.997,217.165 57.792,216.958 57.594 C 216.752 57.395,216.558 57.124,216.528 56.991 C 216.470 56.741,215.569 55.555,214.888 54.833 C 214.671 54.604,214.123 53.929,213.669 53.333 C 213.215 52.737,211.841 51.257,210.616 50.042 C 208.451 47.898,208.184 47.543,208.905 47.773 C 209.095 47.834,209.475 47.901,209.750 47.923 M201.435 66.454 C 201.328 66.561,199.336 66.548,198.417 66.434 C 196.330 66.176,195.709 66.080,194.103 65.765 C 193.380 65.624,192.729 65.545,192.656 65.590 C 192.583 65.635,192.480 65.603,192.428 65.518 C 192.376 65.434,191.939 65.306,191.458 65.234 C 190.437 65.082,190.543 65.108,189.951 64.862 C 189.695 64.756,189.300 64.623,189.074 64.566 C 188.564 64.438,188.417 64.218,188.651 63.936 C 188.750 63.817,188.781 63.670,188.721 63.610 C 188.660 63.549,188.690 63.500,188.785 63.500 C 188.970 63.500,189.443 62.512,189.369 62.279 C 189.345 62.204,189.390 62.182,189.470 62.231 C 189.549 62.280,189.780 61.988,189.983 61.581 C 190.187 61.174,190.425 60.797,190.513 60.742 C 190.600 60.688,190.632 60.579,190.583 60.500 C 190.534 60.421,190.637 60.256,190.812 60.134 C 190.987 60.011,191.270 59.679,191.440 59.396 C 191.688 58.984,193.173 57.039,193.988 56.059 C 194.075 55.955,194.101 55.823,194.046 55.768 C 193.990 55.712,194.032 55.667,194.139 55.667 C 194.246 55.667,194.333 55.550,194.333 55.407 C 194.333 55.264,194.397 55.186,194.475 55.234 C 194.553 55.282,195.208 54.668,195.931 53.869 C 197.525 52.108,198.772 50.833,198.901 50.833 C 198.953 50.833,199.128 50.726,199.290 50.594 C 199.451 50.463,199.996 50.023,200.500 49.617 L 201.417 48.879 201.460 57.632 C 201.484 62.447,201.472 66.416,201.435 66.454 M172.225 64.833 C 172.266 65.063,172.352 65.548,172.416 65.912 C 172.531 66.569,173.138 68.333,173.248 68.333 C 173.462 68.333,173.833 68.104,173.833 67.972 C 173.833 67.885,173.740 67.861,173.625 67.919 C 173.510 67.977,173.557 67.910,173.729 67.770 C 173.901 67.631,174.042 67.325,174.042 67.091 C 174.042 66.858,174.094 66.667,174.157 66.667 C 174.245 66.667,174.672 65.550,174.921 64.667 C 174.934 64.621,175.029 64.380,175.132 64.131 C 175.236 63.883,175.345 63.492,175.376 63.263 C 175.407 63.033,175.485 62.793,175.549 62.729 C 175.614 62.664,175.667 62.468,175.667 62.293 C 175.667 61.988,175.683 61.988,176.103 62.319 C 176.343 62.508,176.597 62.626,176.667 62.583 C 176.738 62.539,176.888 62.615,177.002 62.752 C 177.115 62.888,177.286 63.000,177.382 63.000 C 177.478 63.000,177.707 63.131,177.891 63.292 C 178.138 63.508,178.192 63.519,178.100 63.333 C 177.989 63.111,178.000 63.111,178.196 63.333 C 178.488 63.664,180.833 64.896,180.836 64.720 C 180.837 64.645,180.901 64.682,180.978 64.803 C 181.054 64.923,181.222 65.043,181.350 65.069 C 181.478 65.094,181.808 65.214,182.083 65.335 C 182.358 65.456,182.621 65.568,182.667 65.584 C 183.319 65.812,183.994 66.209,183.922 66.324 C 183.872 66.405,183.925 66.510,184.041 66.556 C 184.167 66.607,184.134 66.646,183.958 66.654 C 183.762 66.662,183.667 66.803,183.667 67.083 C 183.667 67.313,183.597 67.500,183.513 67.500 C 183.428 67.500,183.272 67.781,183.165 68.125 C 183.059 68.469,182.867 68.982,182.740 69.265 C 182.613 69.549,182.491 70.018,182.469 70.307 C 182.447 70.597,182.373 70.833,182.305 70.833 C 182.191 70.833,181.553 72.787,180.944 75.000 C 180.475 76.708,180.009 79.115,180.079 79.475 C 180.116 79.672,180.083 79.833,180.004 79.833 C 179.925 79.833,179.806 80.340,179.739 80.958 C 179.673 81.577,179.593 82.308,179.561 82.583 C 179.529 82.858,179.454 83.890,179.393 84.875 L 179.283 86.667 170.725 86.667 C 162.690 86.667,162.166 86.649,162.153 86.375 C 162.146 86.215,162.124 85.877,162.106 85.625 C 162.087 85.373,162.127 85.167,162.195 85.167 C 162.262 85.167,162.304 84.885,162.288 84.542 C 162.250 83.716,162.443 82.280,162.855 80.307 C 163.040 79.422,163.212 78.597,163.237 78.474 C 163.262 78.351,163.341 78.116,163.412 77.951 C 163.483 77.787,163.494 77.605,163.437 77.548 C 163.379 77.490,163.445 77.271,163.583 77.061 C 163.721 76.850,163.860 76.544,163.891 76.381 C 163.923 76.217,164.039 75.864,164.148 75.596 C 164.257 75.328,164.307 75.006,164.259 74.879 C 164.210 74.753,164.239 74.691,164.322 74.743 C 164.446 74.820,164.624 74.345,164.709 73.711 C 164.718 73.641,164.825 73.484,164.946 73.363 C 165.161 73.148,165.238 72.813,165.175 72.358 C 165.158 72.234,165.218 72.179,165.309 72.235 C 165.458 72.327,165.850 71.456,165.818 71.102 C 165.811 71.021,165.890 70.901,165.994 70.837 C 166.098 70.773,166.196 70.558,166.210 70.360 C 166.225 70.162,166.305 70.000,166.387 70.000 C 166.469 70.000,166.491 69.884,166.436 69.741 C 166.382 69.599,166.406 69.525,166.490 69.577 C 166.574 69.629,166.695 69.505,166.760 69.302 C 166.825 69.099,166.984 68.825,167.115 68.695 C 167.246 68.564,167.312 68.350,167.261 68.220 C 167.211 68.089,167.233 68.022,167.310 68.069 C 167.387 68.116,167.553 67.952,167.680 67.703 C 167.806 67.454,168.080 67.018,168.288 66.734 C 168.496 66.451,168.667 66.132,168.667 66.026 C 168.667 65.920,168.742 65.833,168.833 65.833 C 168.925 65.833,168.981 65.776,168.958 65.705 C 168.935 65.634,169.119 65.358,169.366 65.091 C 169.613 64.824,169.778 64.545,169.731 64.470 C 169.685 64.395,169.710 64.333,169.788 64.333 C 169.865 64.333,170.067 64.098,170.237 63.810 C 170.539 63.299,170.806 62.973,171.550 62.204 L 171.917 61.824 172.034 63.121 C 172.098 63.833,172.184 64.604,172.225 64.833 M209.917 62.448 C 209.642 62.595,209.362 62.798,209.294 62.899 C 209.227 63.000,209.171 63.025,209.169 62.954 C 209.164 62.682,207.082 63.982,207.034 64.288 C 206.977 64.657,207.951 65.942,208.227 65.861 C 208.331 65.831,208.363 65.859,208.297 65.925 C 208.165 66.057,209.141 67.500,209.362 67.500 C 209.438 67.500,209.500 67.617,209.500 67.760 C 209.500 67.903,209.575 67.973,209.667 67.917 C 209.758 67.860,209.833 67.898,209.833 68.002 C 209.833 68.347,212.165 71.498,212.525 71.639 C 212.603 71.669,212.667 71.784,212.667 71.894 C 212.667 72.003,212.817 72.201,213.000 72.333 C 213.183 72.465,213.333 72.642,213.333 72.726 C 213.333 72.810,213.521 73.052,213.750 73.265 C 213.979 73.477,214.167 73.704,214.167 73.769 C 214.167 73.833,214.482 74.304,214.867 74.814 C 215.818 76.073,216.024 76.329,216.451 76.779 C 216.653 76.992,216.765 77.169,216.701 77.172 C 216.636 77.175,216.733 77.308,216.917 77.468 C 217.100 77.627,217.509 78.131,217.827 78.587 C 218.144 79.043,218.463 79.442,218.535 79.472 C 218.607 79.503,218.667 79.602,218.667 79.693 C 218.667 79.784,218.965 80.275,219.329 80.784 L 219.991 81.709 219.331 82.188 C 218.967 82.451,218.631 82.667,218.585 82.667 C 218.538 82.667,218.359 82.798,218.186 82.958 C 218.014 83.119,217.339 83.577,216.687 83.976 C 216.018 84.386,215.549 84.778,215.610 84.876 C 215.669 84.973,215.643 85.005,215.551 84.948 C 215.403 84.857,214.427 85.456,214.177 85.791 C 214.125 85.860,213.821 86.061,213.500 86.237 C 212.817 86.612,212.623 86.753,210.411 88.476 C 209.491 89.192,208.536 89.911,208.288 90.074 C 208.039 90.237,207.885 90.448,207.944 90.544 C 208.004 90.641,207.972 90.669,207.872 90.607 C 207.702 90.502,206.518 91.418,205.716 92.274 C 205.514 92.490,205.271 92.667,205.175 92.667 C 205.079 92.667,205.000 92.763,205.000 92.880 C 205.000 92.998,204.774 93.179,204.499 93.283 C 204.223 93.387,204.040 93.403,204.092 93.319 C 204.144 93.235,204.069 93.167,203.927 93.167 C 203.784 93.167,203.667 93.093,203.667 93.003 C 203.667 92.913,203.479 92.793,203.250 92.735 C 203.021 92.678,202.833 92.580,202.833 92.519 C 202.833 92.458,202.497 92.260,202.085 92.079 C 201.673 91.898,201.336 91.700,201.335 91.639 C 201.333 91.483,199.962 90.735,199.437 90.603 C 198.965 90.485,197.667 91.031,197.667 91.348 C 197.667 91.674,198.016 92.176,198.175 92.078 C 198.262 92.024,198.333 92.091,198.333 92.227 C 198.333 92.521,201.133 95.833,201.382 95.833 C 201.478 95.833,201.506 95.883,201.446 95.943 C 201.386 96.003,201.422 96.156,201.528 96.283 C 201.672 96.457,201.672 96.562,201.526 96.707 C 200.968 97.266,201.418 98.333,202.212 98.333 C 202.606 98.333,203.233 98.688,203.159 98.869 C 203.125 98.952,203.375 99.910,203.477 100.083 C 203.530 100.175,203.590 100.359,203.611 100.493 C 203.631 100.626,203.718 100.889,203.804 101.076 C 203.996 101.493,204.765 103.607,204.917 104.132 C 205.036 104.547,205.493 104.519,206.013 104.064 C 206.158 103.937,206.356 103.833,206.455 103.833 C 206.700 103.833,206.842 101.984,206.783 99.551 L 206.733 97.518 207.402 97.405 C 207.770 97.343,208.186 97.233,208.327 97.161 C 208.468 97.089,208.958 96.898,209.417 96.737 C 209.875 96.576,210.512 96.331,210.833 96.193 C 211.154 96.054,211.520 95.922,211.647 95.899 C 211.773 95.875,211.957 95.776,212.055 95.678 C 212.153 95.580,212.331 95.500,212.450 95.500 C 212.568 95.500,213.142 95.275,213.724 95.000 C 214.306 94.725,214.869 94.500,214.974 94.500 C 215.080 94.500,215.167 94.443,215.167 94.374 C 215.167 94.305,215.450 94.159,215.796 94.051 C 216.815 93.733,218.041 93.179,221.492 91.475 C 224.714 89.884,224.753 89.870,225.058 90.194 C 225.228 90.375,225.329 90.560,225.282 90.607 C 225.235 90.654,225.368 91.080,225.578 91.554 C 226.156 92.864,226.273 93.175,226.313 93.510 C 226.324 93.607,226.420 93.633,226.526 93.567 C 226.648 93.492,226.673 93.522,226.593 93.651 C 226.467 93.855,226.740 94.723,227.062 95.142 C 227.157 95.266,227.251 95.474,227.270 95.604 C 227.309 95.869,229.122 100.174,229.676 101.315 C 229.871 101.718,230.066 102.241,230.109 102.478 C 230.152 102.716,230.239 102.949,230.302 102.996 C 230.365 103.044,230.438 103.196,230.465 103.333 C 230.532 103.683,231.692 106.429,232.843 108.964 C 233.022 109.356,233.270 109.717,233.396 109.765 C 233.654 109.864,236.203 108.607,236.080 108.441 C 236.036 108.382,236.047 108.368,236.104 108.410 C 236.280 108.539,237.184 107.997,237.079 107.826 C 237.025 107.738,237.060 107.667,237.157 107.667 C 237.276 107.667,237.333 106.415,237.333 103.817 L 237.333 99.968 238.333 99.013 C 239.285 98.105,239.492 97.674,239.197 97.211 C 239.024 96.938,238.069 96.754,237.937 96.968 C 237.518 97.644,237.167 96.932,237.167 95.408 L 237.167 93.854 237.917 93.315 C 238.329 93.019,238.669 92.771,238.673 92.763 C 239.134 91.781,238.606 90.925,237.641 91.088 L 236.994 91.197 237.039 87.232 L 237.083 83.268 238.167 82.647 C 238.762 82.306,239.328 81.964,239.423 81.888 C 239.518 81.812,239.948 81.572,240.378 81.354 C 240.808 81.136,241.112 80.880,241.054 80.786 C 240.996 80.692,241.025 80.662,241.119 80.720 C 241.323 80.846,246.044 77.766,245.887 77.609 C 245.827 77.549,245.898 77.500,246.045 77.500 C 246.570 77.500,252.349 72.627,252.109 72.386 C 252.073 72.351,252.260 72.091,252.524 71.808 C 252.788 71.526,253.050 71.097,253.108 70.856 C 253.166 70.614,253.288 70.322,253.379 70.205 C 253.781 69.696,253.114 67.183,252.613 67.313 C 252.544 67.331,252.378 67.235,252.244 67.101 C 251.518 66.375,247.868 66.734,245.333 67.780 C 245.196 67.837,244.972 67.906,244.836 67.933 C 244.701 67.960,244.564 68.057,244.534 68.148 C 244.503 68.240,244.371 68.273,244.239 68.223 C 244.108 68.172,244.000 68.212,244.000 68.310 C 244.000 68.409,243.887 68.446,243.750 68.394 C 243.608 68.339,243.500 68.390,243.500 68.510 C 243.500 68.627,243.452 68.674,243.393 68.616 C 243.335 68.557,243.091 68.611,242.852 68.736 C 242.612 68.862,241.629 69.336,240.667 69.790 C 237.036 71.504,236.248 71.888,236.167 71.985 C 236.121 72.039,235.727 72.251,235.292 72.456 C 234.856 72.661,234.500 72.892,234.500 72.970 C 234.500 73.048,234.406 73.114,234.292 73.117 C 234.177 73.120,233.609 73.394,233.029 73.726 L 231.975 74.329 231.280 73.956 C 230.897 73.751,230.547 73.544,230.500 73.496 C 230.288 73.275,229.500 72.838,229.500 72.942 C 229.500 73.006,229.331 72.909,229.125 72.726 C 228.617 72.277,228.063 71.942,226.418 71.089 C 225.063 70.386,225.032 70.356,225.345 70.073 C 225.606 69.836,225.839 68.526,225.625 68.494 C 224.563 68.333,224.296 68.353,223.555 68.645 C 222.725 68.972,222.710 68.972,222.187 68.655 C 221.896 68.478,221.543 68.333,221.403 68.333 C 221.250 68.333,221.195 68.255,221.268 68.138 C 221.351 68.003,221.293 67.980,221.074 68.064 C 220.901 68.130,220.812 68.133,220.874 68.070 C 220.937 68.007,220.799 67.807,220.568 67.624 L 220.146 67.293 220.499 66.917 C 220.940 66.448,221.068 65.597,220.739 65.324 C 220.444 65.079,219.014 65.208,218.836 65.496 C 218.768 65.606,218.646 65.692,218.565 65.688 C 218.200 65.671,217.677 65.882,217.759 66.014 C 217.808 66.094,217.264 65.810,216.549 65.382 C 215.835 64.955,215.003 64.475,214.701 64.317 C 214.399 64.158,214.054 63.947,213.935 63.849 C 213.817 63.750,213.670 63.719,213.610 63.779 C 213.549 63.840,213.500 63.801,213.500 63.694 C 213.500 63.587,213.394 63.500,213.264 63.500 C 213.134 63.500,213.003 63.439,212.972 63.364 C 212.695 62.687,210.628 62.067,209.917 62.448 M188.750 67.661 C 189.483 67.862,190.237 68.044,190.424 68.066 C 190.611 68.087,190.836 68.148,190.924 68.201 C 191.125 68.323,193.504 68.802,194.500 68.922 C 194.912 68.972,195.550 69.049,195.917 69.095 C 196.283 69.140,197.058 69.211,197.638 69.253 C 198.218 69.295,198.747 69.364,198.814 69.405 C 198.882 69.446,199.434 69.496,200.042 69.516 C 200.650 69.536,201.220 69.596,201.308 69.651 C 201.407 69.713,201.458 72.934,201.442 78.167 L 201.417 86.583 191.833 86.627 L 182.250 86.670 182.282 85.877 C 182.399 82.966,182.866 79.944,183.692 76.750 C 183.976 75.650,184.227 74.637,184.248 74.500 C 184.269 74.362,184.332 74.137,184.388 74.000 C 184.715 73.185,184.970 72.254,184.898 72.136 C 184.852 72.061,184.898 72.000,185.000 72.000 C 185.102 72.000,185.143 71.930,185.090 71.845 C 185.038 71.760,185.076 71.639,185.175 71.578 C 185.275 71.517,185.316 71.361,185.267 71.233 C 185.217 71.105,185.259 71.000,185.358 71.000 C 185.457 71.000,185.500 70.850,185.452 70.666 C 185.404 70.483,185.426 70.371,185.502 70.418 C 185.578 70.465,185.689 70.279,185.749 70.005 C 185.809 69.732,186.079 69.052,186.349 68.494 C 186.619 67.936,186.790 67.398,186.728 67.297 C 186.660 67.188,186.692 67.163,186.808 67.234 C 186.913 67.299,187.000 67.264,187.000 67.156 C 187.000 67.020,187.064 67.011,187.208 67.128 C 187.323 67.220,188.017 67.460,188.750 67.661 M244.917 79.745 C 244.642 79.970,244.342 80.160,244.250 80.167 C 243.656 80.209,243.125 80.974,243.250 81.607 C 243.396 82.351,243.417 82.514,243.571 84.083 C 243.634 84.725,243.725 85.569,243.773 85.958 L 243.861 86.667 241.379 86.667 C 238.259 86.667,238.301 86.642,238.367 88.420 L 238.417 89.750 241.122 89.796 L 243.827 89.842 243.739 90.796 C 243.691 91.321,243.568 92.425,243.465 93.250 C 243.363 94.075,243.267 94.900,243.252 95.083 C 243.228 95.386,243.121 95.862,242.883 96.729 C 242.820 96.958,242.858 97.006,243.024 96.909 C 243.148 96.836,243.110 96.936,242.938 97.132 C 242.767 97.327,242.669 97.598,242.720 97.733 C 242.772 97.868,242.745 98.002,242.660 98.031 C 242.575 98.060,242.472 98.346,242.431 98.667 C 242.390 98.987,242.341 99.269,242.324 99.292 C 242.306 99.315,242.281 99.390,242.268 99.458 C 242.255 99.527,242.199 99.658,242.142 99.750 C 242.043 99.911,241.816 100.818,241.746 101.333 C 241.727 101.471,241.540 101.958,241.329 102.417 C 241.118 102.875,240.946 103.344,240.945 103.458 C 240.945 103.573,240.882 103.667,240.806 103.667 C 240.729 103.667,240.667 103.744,240.667 103.838 C 240.667 103.932,240.411 104.527,240.099 105.159 C 239.786 105.791,239.574 106.351,239.626 106.404 C 239.679 106.457,239.640 106.500,239.539 106.500 C 239.369 106.500,239.159 106.933,239.063 107.483 C 239.041 107.612,238.959 107.762,238.882 107.817 C 238.676 107.964,238.142 108.833,238.258 108.833 C 238.313 108.833,238.239 108.951,238.095 109.095 C 237.951 109.239,237.833 109.450,237.833 109.564 C 237.833 109.677,237.700 109.916,237.537 110.094 C 237.373 110.271,236.905 110.904,236.495 111.500 C 236.085 112.096,235.675 112.669,235.583 112.774 C 235.492 112.879,235.229 113.204,235.000 113.495 C 234.449 114.196,234.075 114.640,233.499 115.275 C 233.237 115.564,233.067 115.845,233.122 115.900 C 233.386 116.164,232.868 115.944,232.022 115.434 C 230.498 114.514,229.833 114.165,229.833 114.285 C 229.833 114.346,229.732 114.259,229.609 114.090 C 229.485 113.921,229.312 113.827,229.223 113.882 C 229.135 113.936,228.847 113.796,228.583 113.569 C 228.320 113.343,227.930 113.114,227.719 113.061 C 227.507 113.007,227.333 112.908,227.333 112.841 C 227.333 112.773,227.015 112.584,226.625 112.421 C 226.235 112.258,225.561 111.942,225.125 111.719 C 224.690 111.496,224.259 111.360,224.166 111.417 C 224.073 111.474,223.955 111.411,223.904 111.276 C 223.852 111.141,223.571 110.941,223.280 110.832 C 221.835 110.290,221.797 110.219,222.355 109.124 C 222.888 108.080,223.831 105.465,223.733 105.306 C 223.686 105.229,223.711 105.167,223.789 105.167 C 223.867 105.167,224.032 104.810,224.157 104.375 C 224.281 103.940,224.406 103.508,224.435 103.417 C 224.588 102.926,224.862 101.884,224.895 101.664 C 224.915 101.525,224.990 101.318,225.059 101.205 C 225.135 101.083,225.098 100.999,224.968 100.997 C 224.803 100.996,224.799 100.964,224.951 100.867 C 225.825 100.311,226.082 95.573,225.334 93.798 C 224.820 92.578,223.964 91.814,223.561 92.217 C 223.419 92.358,223.137 94.702,223.222 95.027 C 223.266 95.196,223.234 95.292,223.151 95.240 C 223.068 95.189,222.990 95.395,222.979 95.698 C 222.967 96.002,222.937 96.400,222.911 96.583 C 222.886 96.767,222.826 97.195,222.779 97.536 C 222.732 97.877,222.653 98.221,222.604 98.300 C 222.488 98.488,222.286 99.478,222.266 99.958 C 222.257 100.165,222.210 100.333,222.161 100.333 C 222.113 100.333,222.058 100.512,222.040 100.730 C 222.022 100.949,221.809 101.755,221.566 102.522 C 221.324 103.289,221.103 104.029,221.075 104.167 C 221.048 104.304,221.010 104.435,220.992 104.458 C 220.973 104.481,220.948 104.556,220.935 104.625 C 220.922 104.694,220.865 104.825,220.808 104.917 C 220.752 105.008,220.313 106.040,219.835 107.208 C 219.356 108.377,218.916 109.333,218.857 109.332 C 218.798 109.331,218.281 109.188,217.708 109.014 C 217.135 108.840,216.667 108.730,216.667 108.771 C 216.667 108.812,216.535 108.774,216.373 108.688 C 216.212 108.602,215.730 108.495,215.303 108.450 C 214.876 108.406,214.434 108.312,214.322 108.243 C 214.210 108.174,213.923 108.094,213.684 108.066 C 213.445 108.038,212.761 107.902,212.162 107.763 C 211.564 107.624,210.701 107.468,210.246 107.417 C 209.790 107.366,209.154 107.290,208.833 107.250 C 208.512 107.209,207.612 107.135,206.833 107.087 C 204.786 106.959,204.500 106.879,204.500 106.429 C 204.500 105.634,203.846 104.702,203.458 104.944 C 203.344 105.015,203.175 105.085,203.083 105.099 C 202.321 105.216,201.580 105.785,201.531 106.292 C 201.502 106.590,201.390 106.843,201.281 106.855 C 201.172 106.866,200.896 106.904,200.667 106.939 C 200.438 106.974,199.824 107.000,199.304 106.997 C 198.784 106.993,198.318 107.056,198.268 107.137 C 198.219 107.217,197.900 107.264,197.559 107.242 C 196.842 107.193,194.833 107.499,194.833 107.656 C 194.833 107.714,194.593 107.781,194.298 107.803 C 194.004 107.826,193.723 107.898,193.673 107.964 C 193.624 108.029,193.433 108.095,193.250 108.109 C 193.067 108.123,192.017 108.369,190.917 108.655 C 189.817 108.942,188.767 109.215,188.583 109.263 C 188.400 109.310,187.987 109.389,187.667 109.439 C 187.346 109.488,186.971 109.569,186.833 109.619 C 186.696 109.670,186.396 109.739,186.167 109.773 C 185.938 109.808,185.637 109.861,185.500 109.891 C 185.362 109.922,184.974 110.003,184.637 110.073 C 184.299 110.143,183.981 110.309,183.929 110.444 C 183.878 110.578,183.753 110.637,183.653 110.575 C 183.457 110.454,180.832 111.608,180.628 111.906 C 180.560 112.003,180.504 112.025,180.503 111.954 C 180.499 111.790,179.458 112.317,179.294 112.565 C 179.227 112.667,179.171 112.692,179.169 112.621 C 179.166 112.441,177.113 113.517,176.948 113.786 C 176.874 113.907,176.745 113.965,176.663 113.914 C 176.505 113.816,175.202 114.557,174.917 114.907 C 174.825 115.020,174.375 115.301,173.917 115.532 L 173.083 115.952 172.208 115.037 C 171.727 114.533,171.333 114.060,171.333 113.986 C 171.333 113.911,171.239 113.790,171.124 113.717 C 171.009 113.643,170.693 113.283,170.423 112.917 C 170.152 112.550,169.871 112.225,169.798 112.194 C 169.724 112.163,169.707 112.070,169.759 111.986 C 169.811 111.902,169.736 111.833,169.593 111.833 C 169.450 111.833,169.342 111.777,169.353 111.708 C 169.412 111.334,169.307 111.141,169.089 111.225 C 168.954 111.277,168.800 111.248,168.747 111.162 C 168.694 111.076,168.485 111.008,168.283 111.011 C 167.553 111.023,166.200 110.874,166.018 110.761 C 165.405 110.382,165.685 111.440,166.479 112.500 C 166.719 112.821,166.916 113.121,166.917 113.167 C 166.921 113.370,167.709 114.500,167.847 114.500 C 167.931 114.500,168.000 114.583,168.000 114.685 C 168.000 114.868,169.068 116.250,169.739 116.935 C 169.928 117.129,170.672 117.935,171.391 118.727 C 172.110 119.519,172.800 120.167,172.923 120.167 C 173.046 120.167,173.201 120.253,173.266 120.359 C 173.345 120.486,173.311 120.506,173.167 120.417 C 173.022 120.327,172.989 120.347,173.067 120.474 C 173.133 120.580,173.264 120.667,173.358 120.667 C 173.509 120.667,174.016 121.097,175.230 122.254 C 175.909 122.903,176.780 123.498,176.890 123.388 C 176.950 123.327,177.000 123.365,177.000 123.471 C 177.000 123.745,178.339 124.683,178.547 124.555 C 178.641 124.496,178.668 124.529,178.607 124.629 C 178.544 124.730,178.661 124.861,178.873 124.927 C 179.080 124.992,179.287 125.101,179.333 125.169 C 179.436 125.322,181.918 126.833,182.066 126.833 C 182.125 126.833,182.483 127.029,182.863 127.268 C 183.601 127.734,185.616 128.632,186.115 128.717 C 186.281 128.745,186.646 128.890,186.927 129.039 C 187.731 129.465,192.047 130.851,192.285 130.760 C 192.403 130.714,192.500 130.735,192.500 130.806 C 192.500 130.877,193.344 131.102,194.375 131.307 C 197.736 131.974,199.031 132.085,203.333 132.075 C 206.464 132.068,209.586 131.821,210.059 131.543 C 210.137 131.497,210.512 131.434,210.892 131.402 C 211.509 131.352,215.531 130.324,216.167 130.056 C 216.304 129.997,216.492 129.931,216.583 129.907 C 216.743 129.867,219.225 128.949,219.917 128.674 C 221.046 128.226,225.257 126.077,225.518 125.815 C 225.692 125.642,225.890 125.494,225.958 125.487 C 226.215 125.461,228.833 123.783,228.833 123.644 C 228.833 123.565,228.896 123.519,228.972 123.542 C 229.105 123.582,229.947 122.931,231.020 121.958 C 231.298 121.706,231.583 121.500,231.653 121.500 C 232.002 121.500,236.745 116.554,237.478 115.426 C 237.719 115.054,237.997 114.675,238.096 114.583 C 239.375 113.394,243.898 105.176,243.568 104.642 C 243.502 104.535,243.520 104.493,243.608 104.547 C 243.739 104.628,244.737 102.137,244.903 101.315 C 244.929 101.188,245.002 100.963,245.067 100.815 C 245.132 100.667,245.208 100.367,245.237 100.148 C 245.266 99.929,245.328 99.638,245.376 99.500 C 245.542 99.025,246.168 95.910,246.448 94.167 C 246.859 91.612,246.857 85.084,246.444 82.583 C 245.872 79.117,245.814 79.009,244.917 79.745 M154.861 84.458 C 154.736 84.702,154.466 85.879,154.470 86.167 C 154.471 86.212,154.409 86.326,154.332 86.418 C 154.175 86.607,153.543 89.104,153.426 90.000 C 153.384 90.321,153.284 90.921,153.205 91.333 C 153.125 91.746,153.065 92.515,153.072 93.042 C 153.078 93.569,153.016 94.000,152.934 94.000 C 152.798 94.000,152.859 95.420,153.094 97.750 C 153.252 99.308,153.800 100.867,154.970 103.083 C 155.446 103.987,157.876 106.500,158.273 106.500 C 158.398 106.500,158.500 106.575,158.500 106.667 C 158.500 106.758,158.609 106.833,158.742 106.833 C 158.875 106.833,159.043 106.936,159.117 107.063 C 159.274 107.332,161.332 108.397,161.336 108.211 C 161.337 108.141,161.394 108.170,161.461 108.275 C 161.528 108.380,161.733 108.493,161.917 108.525 C 162.100 108.557,162.294 108.643,162.348 108.717 C 162.403 108.790,162.628 108.874,162.848 108.903 C 163.069 108.932,163.438 109.029,163.667 109.119 C 163.896 109.209,164.683 109.375,165.417 109.487 C 166.150 109.598,166.938 109.723,167.167 109.764 C 169.068 110.104,175.658 110.201,177.167 109.911 C 177.396 109.867,177.996 109.797,178.500 109.755 C 179.004 109.713,179.717 109.631,180.083 109.572 C 180.450 109.514,181.275 109.405,181.917 109.330 C 182.558 109.255,183.308 109.152,183.583 109.101 C 183.858 109.050,184.458 108.961,184.917 108.904 C 185.375 108.847,185.787 108.751,185.833 108.692 C 185.879 108.632,186.067 108.565,186.250 108.544 C 187.568 108.387,188.724 108.149,188.917 107.995 C 189.105 107.845,189.163 107.833,189.760 107.833 C 190.040 107.833,190.145 107.767,190.067 107.641 C 189.991 107.517,190.022 107.494,190.154 107.576 C 190.332 107.685,191.375 107.496,192.167 107.211 C 192.304 107.161,192.529 107.100,192.667 107.076 C 193.292 106.964,195.092 106.443,195.167 106.352 C 195.213 106.296,195.377 106.240,195.532 106.228 C 195.781 106.209,198.499 105.444,199.167 105.206 C 199.304 105.157,199.492 105.099,199.583 105.078 C 201.361 104.672,203.463 103.765,203.425 103.421 C 203.357 102.797,202.441 100.350,202.307 100.433 C 202.240 100.475,202.213 100.357,202.249 100.171 C 202.285 99.985,202.239 99.833,202.147 99.833 C 202.055 99.833,202.018 99.772,202.065 99.697 C 202.111 99.622,201.894 99.468,201.583 99.356 C 200.577 98.992,200.111 98.250,200.221 97.185 C 200.312 96.304,200.296 96.257,199.681 95.642 C 199.333 95.293,199.076 94.979,199.111 94.944 C 199.147 94.909,198.873 94.607,198.504 94.274 C 198.135 93.940,197.833 93.583,197.833 93.480 C 197.833 93.240,196.875 93.417,196.511 93.724 C 196.367 93.845,195.838 94.116,195.333 94.326 C 194.829 94.537,194.379 94.755,194.333 94.813 C 194.287 94.870,193.781 95.137,193.208 95.406 C 192.635 95.675,192.167 95.956,192.167 96.031 C 192.167 96.105,192.110 96.149,192.042 96.127 C 191.818 96.056,190.833 96.535,190.833 96.715 C 190.833 96.810,190.785 96.840,190.726 96.781 C 190.631 96.686,189.733 97.090,188.083 97.968 C 187.808 98.115,187.546 98.229,187.500 98.222 C 187.314 98.193,186.980 98.321,185.250 99.076 C 184.883 99.237,184.583 99.345,184.583 99.316 C 184.583 99.288,184.283 99.424,183.917 99.618 C 183.336 99.925,182.775 100.172,182.500 100.242 C 181.753 100.433,180.667 100.900,180.667 101.031 C 180.667 101.125,180.554 101.159,180.417 101.106 C 180.279 101.054,180.167 101.088,180.167 101.182 C 180.167 101.276,180.093 101.307,180.002 101.251 C 179.911 101.195,179.518 101.291,179.127 101.464 C 178.736 101.636,178.323 101.747,178.208 101.708 C 178.094 101.670,178.000 101.704,178.000 101.784 C 178.000 101.863,177.869 101.938,177.708 101.951 C 177.445 101.970,176.881 102.091,176.667 102.173 C 176.621 102.191,176.508 102.216,176.417 102.229 C 175.806 102.318,173.833 102.889,173.833 102.976 C 173.833 103.035,173.590 103.089,173.292 103.097 C 172.994 103.105,171.963 103.236,171.000 103.389 C 168.847 103.732,165.775 103.964,165.370 103.814 C 165.205 103.753,164.623 103.653,164.077 103.592 C 162.494 103.413,162.434 103.402,162.083 103.213 C 161.900 103.114,161.693 103.027,161.623 103.020 C 161.554 103.013,161.272 102.891,160.998 102.749 C 160.724 102.607,160.499 102.550,160.497 102.621 C 160.496 102.692,160.440 102.673,160.372 102.580 C 160.305 102.486,160.031 102.299,159.763 102.163 C 158.817 101.684,158.714 101.604,158.339 101.057 C 158.131 100.753,157.883 100.553,157.788 100.612 C 157.688 100.673,157.665 100.637,157.734 100.526 C 157.799 100.420,157.774 100.333,157.677 100.333 C 157.579 100.333,157.498 100.240,157.495 100.125 C 157.493 100.010,157.268 99.622,156.995 99.262 C 156.723 98.902,156.500 98.555,156.500 98.491 C 156.500 98.427,156.373 98.084,156.218 97.729 C 156.064 97.374,155.931 97.046,155.924 97.000 C 155.917 96.954,155.852 96.823,155.779 96.708 C 155.707 96.594,155.687 96.500,155.736 96.500 C 155.785 96.500,155.745 96.294,155.647 96.042 C 155.456 95.550,155.384 95.179,155.252 94.000 C 155.206 93.587,155.125 92.975,155.072 92.638 C 154.947 91.850,154.941 88.991,155.063 88.384 C 155.115 88.127,155.200 87.317,155.252 86.583 C 155.304 85.850,155.380 85.006,155.420 84.708 C 155.502 84.103,155.130 83.937,154.861 84.458 M237.125 105.616 C 237.095 106.698,237.072 105.858,237.071 103.750 C 237.071 101.642,237.095 100.756,237.124 101.782 C 237.154 102.808,237.154 104.533,237.125 105.616 M201.460 118.806 L 201.503 127.691 200.710 127.054 C 198.783 125.505,198.344 125.125,197.622 124.383 C 197.247 123.999,196.887 123.717,196.822 123.757 C 196.757 123.797,196.585 123.587,196.439 123.290 C 196.294 122.993,195.719 122.300,195.161 121.750 C 194.604 121.200,193.995 120.506,193.809 120.207 C 193.624 119.909,193.403 119.707,193.319 119.759 C 193.235 119.811,193.167 119.726,193.167 119.571 C 193.167 119.415,192.977 119.113,192.746 118.898 C 192.515 118.684,192.308 118.450,192.288 118.379 C 192.267 118.308,192.206 118.265,192.153 118.282 C 192.099 118.300,192.051 118.225,192.046 118.116 C 192.030 117.791,189.551 114.171,189.428 114.294 C 189.366 114.356,189.361 114.290,189.415 114.147 C 189.470 114.004,189.399 113.791,189.258 113.673 C 189.116 113.555,189.000 113.356,189.000 113.230 C 189.000 113.103,188.925 113.000,188.833 113.000 C 188.742 113.000,188.667 112.888,188.667 112.750 C 188.667 112.612,188.594 112.500,188.505 112.500 C 187.920 112.500,188.698 111.897,189.479 111.745 C 189.628 111.716,189.750 111.681,189.750 111.667 C 189.750 111.653,189.890 111.615,190.062 111.582 C 190.826 111.438,192.098 111.114,192.250 111.025 C 192.342 110.971,192.567 110.916,192.750 110.903 C 192.933 110.889,193.833 110.752,194.750 110.596 C 196.423 110.313,200.699 109.845,201.167 109.895 C 201.385 109.918,201.422 111.053,201.460 118.806 M208.943 110.232 C 209.319 110.312,210.734 110.536,211.167 110.584 C 211.579 110.630,213.343 110.999,214.500 111.282 C 215.096 111.427,215.733 111.567,215.917 111.592 C 216.100 111.617,216.532 111.758,216.877 111.905 L 217.504 112.173 217.176 112.816 C 216.995 113.169,216.882 113.506,216.924 113.563 C 216.966 113.620,216.954 113.633,216.897 113.592 C 216.783 113.508,215.167 115.917,215.167 116.172 C 215.167 116.261,215.093 116.333,215.003 116.333 C 214.913 116.333,214.792 116.522,214.735 116.752 C 214.677 116.982,214.544 117.226,214.440 117.294 C 214.335 117.361,213.875 117.925,213.417 118.547 C 212.958 119.169,212.195 120.103,211.719 120.622 C 211.244 121.142,210.892 121.627,210.937 121.700 C 210.983 121.773,210.905 121.833,210.766 121.833 C 210.626 121.833,210.440 121.968,210.352 122.132 C 210.264 122.296,209.590 123.020,208.853 123.741 C 208.116 124.463,207.559 125.128,207.616 125.219 C 207.672 125.310,207.646 125.340,207.557 125.285 C 207.469 125.231,206.801 125.705,206.073 126.339 C 205.345 126.973,204.694 127.494,204.625 127.496 C 204.556 127.498,204.500 123.551,204.500 118.725 L 204.500 109.949 206.542 110.053 C 207.665 110.109,208.745 110.190,208.943 110.232 M186.072 114.190 C 186.249 114.498,186.380 114.806,186.363 114.875 C 186.347 114.944,186.408 115.000,186.500 115.000 C 186.592 115.000,186.667 115.106,186.667 115.235 C 186.667 115.501,188.753 118.679,189.053 118.870 C 189.161 118.939,189.187 118.996,189.111 118.997 C 189.035 118.999,189.221 119.319,189.526 119.708 C 189.831 120.098,190.156 120.520,190.249 120.645 C 190.341 120.771,190.604 121.071,190.833 121.312 C 191.063 121.553,191.356 121.956,191.487 122.208 C 191.617 122.460,191.827 122.667,191.955 122.667 C 192.082 122.667,192.140 122.742,192.083 122.833 C 192.027 122.925,192.044 123.000,192.121 123.000 C 192.198 123.000,192.395 123.226,192.559 123.503 C 192.722 123.780,192.926 123.962,193.012 123.909 C 193.099 123.856,193.217 123.948,193.275 124.114 C 193.386 124.431,194.659 125.666,194.875 125.666 C 194.944 125.667,194.981 125.729,194.958 125.805 C 194.907 125.974,197.318 128.420,197.667 128.553 C 197.804 128.605,197.466 128.630,196.915 128.609 C 196.365 128.587,195.829 128.517,195.725 128.453 C 195.621 128.389,195.226 128.308,194.846 128.274 C 194.467 128.240,194.108 128.164,194.050 128.106 C 193.992 128.048,193.810 128.000,193.645 128.000 C 193.480 128.000,193.018 127.889,192.619 127.753 C 192.220 127.618,191.748 127.479,191.571 127.445 C 191.395 127.411,191.137 127.337,191.000 127.280 C 189.955 126.849,188.414 126.367,188.302 126.436 C 188.228 126.482,188.167 126.455,188.167 126.377 C 188.167 126.261,187.166 125.795,186.833 125.755 C 186.787 125.749,186.655 125.685,186.539 125.611 C 186.423 125.537,186.124 125.440,185.876 125.395 C 185.627 125.350,185.385 125.253,185.337 125.179 C 185.218 124.996,183.781 124.258,183.625 124.300 C 183.556 124.318,183.500 124.258,183.500 124.167 C 183.500 124.075,183.401 124.000,183.280 124.000 C 183.159 124.000,182.765 123.777,182.405 123.505 C 182.045 123.232,181.700 123.007,181.638 123.005 C 181.577 123.002,180.921 122.583,180.180 122.072 C 179.439 121.562,178.833 121.183,178.833 121.229 C 178.833 121.276,178.488 120.999,178.066 120.615 C 177.644 120.231,177.267 119.917,177.228 119.917 C 177.065 119.917,175.366 118.249,175.427 118.150 C 175.498 118.035,177.827 116.691,179.667 115.702 C 180.262 115.382,180.775 115.055,180.806 114.976 C 180.837 114.896,180.924 114.870,181.001 114.917 C 181.077 114.964,181.241 114.909,181.366 114.793 C 181.490 114.678,181.702 114.559,181.837 114.529 C 181.973 114.499,182.108 114.405,182.139 114.320 C 182.170 114.234,182.264 114.207,182.348 114.259 C 182.431 114.311,182.500 114.261,182.500 114.149 C 182.500 114.036,182.542 113.987,182.594 114.039 C 182.689 114.134,184.346 113.535,184.934 113.193 C 185.285 112.989,185.480 113.160,186.072 114.190 M221.660 113.497 C 222.121 113.679,223.349 114.242,224.389 114.747 C 225.429 115.253,226.329 115.667,226.388 115.667 C 226.448 115.667,226.649 115.798,226.837 115.958 C 227.024 116.119,227.223 116.225,227.278 116.194 C 227.334 116.163,227.425 116.205,227.481 116.286 C 227.633 116.506,228.971 117.167,229.265 117.167 C 229.405 117.167,229.477 117.236,229.424 117.321 C 229.372 117.406,229.468 117.520,229.638 117.574 C 229.808 117.628,230.128 117.871,230.349 118.113 C 230.569 118.355,230.657 118.500,230.542 118.434 C 230.412 118.359,230.263 118.471,230.143 118.735 C 230.038 118.967,229.899 119.124,229.835 119.084 C 229.771 119.045,229.435 119.272,229.088 119.589 C 228.742 119.907,228.411 120.167,228.354 120.167 C 228.297 120.168,227.969 120.427,227.625 120.742 C 227.281 121.058,227.000 121.277,227.000 121.230 C 227.000 121.182,226.896 121.242,226.769 121.363 C 226.264 121.843,225.858 122.136,225.790 122.068 C 225.751 122.029,225.520 122.181,225.276 122.407 C 225.033 122.633,224.833 122.784,224.833 122.744 C 224.833 122.649,223.190 123.635,222.750 123.993 C 222.395 124.281,221.371 124.758,218.873 125.797 C 218.023 126.150,217.383 126.495,217.451 126.562 C 217.518 126.629,217.447 126.636,217.293 126.577 C 217.139 126.518,216.786 126.583,216.508 126.721 C 216.230 126.859,215.778 127.022,215.502 127.083 C 215.226 127.144,215.000 127.270,215.000 127.364 C 215.000 127.459,214.881 127.490,214.735 127.434 C 214.589 127.378,214.383 127.388,214.277 127.455 C 214.170 127.523,214.046 127.583,214.000 127.588 C 213.585 127.638,212.553 127.884,212.425 127.963 C 212.336 128.018,212.111 128.079,211.924 128.099 C 211.737 128.120,210.956 128.256,210.190 128.402 C 209.424 128.547,208.687 128.667,208.553 128.667 C 208.419 128.667,209.348 127.635,210.617 126.375 C 211.886 125.115,213.523 123.333,214.254 122.417 C 214.985 121.500,215.677 120.651,215.792 120.530 C 216.137 120.165,217.440 118.293,217.806 117.636 C 217.995 117.298,218.376 116.708,218.655 116.324 C 218.933 115.939,219.120 115.559,219.070 115.479 C 219.021 115.399,219.052 115.333,219.140 115.333 C 219.360 115.333,220.004 114.063,219.864 113.906 C 219.801 113.837,219.833 113.827,219.934 113.885 C 220.035 113.942,220.202 113.804,220.305 113.578 C 220.532 113.081,220.595 113.078,221.660 113.497 M266.304 134.839 C 265.245 135.137,264.347 136.958,264.958 137.569 C 265.027 137.638,265.083 137.749,265.083 137.817 C 265.083 138.284,266.095 138.833,266.957 138.833 C 268.842 138.833,269.873 137.361,269.072 135.812 C 268.806 135.297,267.467 134.536,267.362 134.839 C 267.329 134.931,267.190 134.938,267.028 134.856 C 266.875 134.778,266.549 134.770,266.304 134.839 M275.292 135.181 C 275.131 135.274,275.000 135.304,275.000 135.249 C 275.000 135.076,273.951 135.728,273.544 136.154 C 272.985 136.738,272.461 137.635,272.573 137.816 C 272.626 137.902,272.586 137.999,272.484 138.033 C 272.377 138.069,272.295 138.529,272.289 139.131 C 272.279 140.238,272.325 140.189,271.250 140.231 L 270.750 140.250 270.702 141.792 L 270.654 143.333 271.502 143.333 L 272.349 143.333 272.299 147.750 L 272.250 152.167 274.208 152.167 L 276.167 152.167 276.167 147.750 L 276.167 143.333 277.167 143.333 L 278.167 143.333 278.167 141.750 L 278.167 140.167 277.154 140.167 L 276.141 140.167 276.195 139.542 C 276.289 138.471,276.825 138.051,277.774 138.304 C 278.703 138.553,278.674 138.584,279.075 136.885 C 279.409 135.465,279.237 135.056,278.371 135.218 C 278.163 135.257,277.957 135.232,277.914 135.163 C 277.796 134.972,275.625 134.987,275.292 135.181 M159.105 135.708 C 159.050 135.915,159.004 139.702,159.002 144.125 L 159.000 152.167 161.000 152.167 L 163.000 152.167 163.000 148.258 L 163.000 144.350 163.542 143.938 C 164.320 143.346,164.883 143.245,165.472 143.593 C 166.119 143.976,166.163 144.292,166.165 148.630 L 166.167 152.177 168.125 152.130 L 170.083 152.083 170.132 148.583 C 170.182 144.967,169.986 142.533,169.624 142.304 C 169.510 142.231,169.475 142.171,169.546 142.169 C 169.617 142.168,169.568 141.960,169.438 141.708 C 169.159 141.171,168.242 140.314,168.099 140.457 C 168.044 140.511,168.000 140.468,168.000 140.361 C 168.000 140.254,167.944 140.184,167.875 140.204 C 167.806 140.225,167.397 140.141,166.965 140.018 C 166.497 139.884,165.992 139.845,165.715 139.920 C 165.459 139.989,165.077 140.069,164.866 140.096 C 164.654 140.123,164.153 140.338,163.753 140.573 C 163.352 140.808,162.987 141.000,162.943 141.000 C 162.898 141.000,162.904 139.840,162.956 138.422 C 163.074 135.190,163.169 135.333,160.916 135.333 C 159.283 135.333,159.201 135.350,159.105 135.708 M125.250 136.628 C 125.143 136.706,125.083 139.512,125.083 144.458 L 125.083 152.167 127.042 152.167 L 129.000 152.167 129.000 149.667 L 129.000 147.167 130.042 147.147 C 130.615 147.136,131.182 147.140,131.302 147.157 C 131.763 147.219,133.402 146.785,134.174 146.397 C 137.213 144.871,137.909 140.361,135.474 137.975 C 134.880 137.392,134.726 137.303,134.394 137.348 C 134.335 137.355,134.237 137.281,134.176 137.181 C 134.039 136.960,132.227 136.608,131.892 136.737 C 131.756 136.789,131.694 136.757,131.751 136.665 C 131.871 136.471,125.512 136.435,125.250 136.628 M185.167 144.333 L 185.167 152.167 189.319 152.167 C 193.178 152.167,193.537 152.141,194.416 151.805 C 195.478 151.398,196.833 150.203,196.833 149.673 C 196.833 149.486,196.916 149.333,197.018 149.333 C 197.119 149.333,197.160 149.223,197.108 149.089 C 197.057 148.954,197.076 148.806,197.151 148.760 C 197.931 148.278,196.947 145.161,195.768 144.380 L 195.049 143.904 195.608 143.257 C 195.915 142.902,196.167 142.489,196.167 142.339 C 196.167 142.189,196.250 141.983,196.352 141.882 C 196.636 141.597,196.479 139.027,196.165 138.829 C 196.028 138.742,195.981 138.671,196.060 138.669 C 196.139 138.668,196.027 138.511,195.810 138.321 C 195.594 138.130,195.529 138.023,195.667 138.083 C 195.804 138.142,195.692 137.998,195.417 137.762 C 194.322 136.822,192.520 136.500,188.365 136.500 L 185.167 136.500 185.167 144.333 M253.457 136.611 C 253.181 136.687,253.166 137.162,253.207 144.388 L 253.250 152.083 258.208 152.127 L 263.167 152.172 263.167 150.544 L 263.167 148.917 260.167 148.969 L 257.167 149.021 257.167 142.780 L 257.167 136.540 255.458 136.536 C 254.519 136.533,253.618 136.567,253.457 136.611 M175.667 136.765 C 175.529 136.790,175.133 136.857,174.787 136.914 C 174.441 136.971,174.201 137.087,174.254 137.173 C 174.307 137.259,174.249 137.290,174.124 137.243 C 173.829 137.130,172.485 138.106,172.379 138.510 C 172.334 138.682,172.151 138.869,171.972 138.925 C 171.565 139.055,171.622 139.642,172.067 139.900 C 172.242 140.001,172.638 140.358,172.948 140.693 C 173.548 141.343,173.794 141.396,174.222 140.968 C 175.257 139.934,176.680 139.659,177.690 140.299 C 177.998 140.494,178.224 140.675,178.193 140.702 C 178.162 140.728,178.188 141.026,178.251 141.364 C 178.321 141.737,178.281 142.228,178.149 142.614 C 178.029 142.964,177.944 143.297,177.959 143.355 C 177.974 143.413,177.840 143.593,177.660 143.756 C 177.480 143.919,177.333 144.134,177.333 144.236 C 177.333 144.337,177.180 144.515,176.994 144.632 C 176.807 144.749,176.699 144.917,176.753 145.005 C 176.808 145.094,176.781 145.167,176.692 145.167 C 176.604 145.167,175.833 145.935,174.978 146.875 C 174.123 147.815,173.374 148.567,173.314 148.548 C 172.823 148.389,171.667 150.232,171.667 151.174 L 171.667 152.167 177.250 152.167 L 182.833 152.167 182.833 150.822 C 182.833 148.851,182.816 148.833,180.861 148.833 C 179.966 148.833,179.162 148.894,179.075 148.968 C 178.988 149.042,178.666 149.061,178.359 149.010 L 177.802 148.917 178.526 148.150 C 181.644 144.850,182.616 142.513,181.898 140.042 C 181.624 139.101,180.675 137.721,180.352 137.793 C 180.245 137.817,180.114 137.724,180.061 137.586 C 180.008 137.448,179.898 137.377,179.816 137.427 C 179.734 137.478,179.667 137.436,179.667 137.333 C 179.667 137.231,179.598 137.189,179.514 137.241 C 179.430 137.293,179.336 137.257,179.304 137.161 C 179.271 137.064,179.021 136.957,178.748 136.921 C 178.474 136.885,178.250 136.844,178.250 136.829 C 178.250 136.778,175.914 136.719,175.667 136.765 M150.982 137.464 C 150.902 137.674,150.848 137.899,150.862 137.964 C 151.151 139.355,150.393 140.463,149.225 140.358 C 148.879 140.327,148.867 140.384,148.891 141.871 L 148.917 143.417 149.708 143.360 L 150.500 143.303 150.520 145.860 C 150.531 147.266,150.528 148.480,150.514 148.558 C 150.312 149.693,151.243 151.475,152.329 152.031 C 153.784 152.775,158.072 152.457,157.568 151.642 C 157.494 151.521,157.422 151.309,157.409 151.170 C 157.264 149.587,156.961 149.071,156.312 149.298 C 155.724 149.503,155.175 149.416,154.831 149.064 C 154.459 148.681,154.457 148.659,154.481 145.694 L 154.500 143.304 155.708 143.354 C 157.300 143.421,157.333 143.391,157.333 141.920 C 157.333 140.140,157.357 140.167,155.816 140.167 L 154.500 140.167 154.500 138.760 C 154.500 137.092,154.562 137.147,152.640 137.111 C 151.205 137.085,151.119 137.103,150.982 137.464 M212.080 137.172 C 212.050 137.221,211.985 137.599,211.937 138.013 C 211.680 140.198,211.714 140.129,210.813 140.253 C 209.852 140.385,209.783 140.531,209.863 142.267 L 209.917 143.417 210.625 143.361 L 211.333 143.305 211.339 145.444 C 211.349 148.833,211.744 151.000,212.351 151.000 C 212.444 151.000,212.480 151.064,212.432 151.142 C 212.383 151.221,212.529 151.459,212.755 151.671 C 212.981 151.884,213.168 151.989,213.169 151.904 C 213.171 151.819,213.227 151.831,213.294 151.931 C 213.866 152.776,218.500 152.643,218.500 151.781 C 218.500 151.348,218.004 149.447,217.849 149.287 C 217.780 149.215,217.546 149.222,217.329 149.302 C 215.819 149.861,215.398 149.050,215.463 145.708 L 215.509 143.333 216.838 143.333 L 218.167 143.333 218.167 141.750 L 218.167 140.167 216.833 140.167 L 215.500 140.167 215.500 138.667 C 215.500 137.842,215.444 137.164,215.375 137.162 C 213.741 137.098,212.122 137.104,212.080 137.172 M220.639 137.384 C 220.551 137.550,220.495 137.850,220.514 138.051 C 220.534 138.252,220.504 138.529,220.448 138.667 C 220.392 138.804,220.325 139.179,220.298 139.500 C 220.251 140.066,220.222 140.089,219.333 140.259 L 218.417 140.434 218.373 141.925 C 218.344 142.957,218.381 143.340,218.496 143.167 C 218.643 142.945,218.662 142.946,218.664 143.171 C 218.666 143.367,218.820 143.411,219.333 143.362 L 220.000 143.298 220.021 145.899 C 220.046 149.000,220.051 149.107,220.197 149.252 C 220.259 149.315,220.276 149.456,220.233 149.567 C 219.971 150.250,221.387 151.980,222.475 152.306 C 224.177 152.816,227.186 152.417,227.066 151.697 C 226.651 149.202,226.595 149.106,225.668 149.314 C 224.999 149.465,224.918 149.444,224.475 149.001 L 224.000 148.526 224.000 145.912 L 224.000 143.299 225.375 143.358 L 226.750 143.417 226.750 141.833 L 226.750 140.250 225.375 140.202 L 224.000 140.153 223.979 138.827 C 223.968 138.097,223.949 137.419,223.938 137.320 C 223.897 136.973,220.827 137.033,220.639 137.384 M132.443 140.367 C 133.042 140.967,133.190 141.807,132.827 142.554 C 132.311 143.616,132.104 143.726,130.489 143.803 L 129.020 143.873 128.968 141.812 L 128.917 139.750 130.473 139.852 C 131.834 139.941,132.081 140.006,132.443 140.367 M191.502 139.849 C 193.674 140.315,192.782 142.524,190.375 142.643 L 189.167 142.702 189.167 141.184 L 189.167 139.667 189.908 139.667 C 190.316 139.667,191.034 139.749,191.502 139.849 M142.260 139.984 C 142.208 140.067,142.025 140.098,141.853 140.053 C 141.132 139.865,137.816 141.245,137.900 141.698 C 138.110 142.824,139.667 144.820,139.667 143.962 C 139.667 143.861,139.714 143.825,139.772 143.883 C 139.830 143.941,140.036 143.900,140.230 143.792 C 140.424 143.684,140.621 143.588,140.667 143.578 C 140.712 143.569,141.050 143.473,141.417 143.365 C 142.442 143.063,143.064 143.117,143.446 143.542 C 143.920 144.068,144.027 144.454,143.731 144.568 C 143.573 144.628,143.525 144.594,143.600 144.472 C 143.681 144.343,143.643 144.328,143.484 144.427 C 143.355 144.507,143.063 144.584,142.833 144.598 C 142.604 144.612,142.379 144.642,142.333 144.665 C 142.287 144.688,142.195 144.698,142.128 144.687 C 141.731 144.627,140.346 145.053,140.441 145.206 C 140.505 145.310,140.473 145.336,140.365 145.269 C 139.885 144.973,138.311 146.209,137.747 147.325 C 137.408 147.998,137.495 150.019,137.898 150.797 C 138.124 151.231,139.160 152.263,139.333 152.225 C 139.379 152.215,139.604 152.279,139.833 152.367 C 140.825 152.750,142.818 152.387,144.354 151.543 C 144.411 151.512,144.498 151.639,144.547 151.827 C 144.629 152.141,144.764 152.167,146.332 152.167 L 148.029 152.167 147.973 147.875 C 147.925 144.188,147.876 143.503,147.625 143.016 C 147.465 142.704,147.333 142.350,147.333 142.230 C 147.333 141.031,142.842 139.043,142.260 139.984 M203.496 139.892 C 203.448 139.940,203.210 140.016,202.967 140.060 C 202.289 140.183,201.000 140.793,201.000 140.991 C 201.000 141.087,200.896 141.167,200.769 141.167 C 199.894 141.167,197.882 145.111,198.544 145.531 C 198.657 145.603,198.672 145.663,198.577 145.664 C 198.389 145.667,198.280 147.279,198.450 147.553 C 198.507 147.646,198.570 147.929,198.590 148.183 C 198.778 150.571,201.446 152.509,204.526 152.494 C 206.343 152.485,209.000 151.688,209.000 151.152 C 209.000 150.961,208.675 150.299,208.517 150.167 C 208.462 150.121,208.287 149.802,208.128 149.458 C 207.802 148.754,207.461 148.673,206.633 149.101 C 205.109 149.889,202.804 149.220,202.420 147.878 L 202.313 147.507 205.782 147.462 C 209.107 147.419,209.252 147.403,209.293 147.083 C 209.454 145.828,209.471 145.002,209.337 144.919 C 209.251 144.866,209.221 144.720,209.269 144.595 C 209.490 144.017,208.333 141.377,207.960 141.608 C 207.862 141.669,207.827 141.645,207.882 141.555 C 207.938 141.466,207.837 141.268,207.658 141.115 C 207.479 140.962,207.333 140.876,207.333 140.925 C 207.333 140.973,207.181 140.871,206.995 140.698 C 206.475 140.213,203.791 139.595,203.496 139.892 M232.667 139.988 C 232.667 140.097,232.596 140.143,232.511 140.090 C 232.319 139.971,230.990 140.257,230.851 140.446 C 230.795 140.522,230.637 140.608,230.500 140.638 C 230.362 140.669,230.189 140.802,230.115 140.934 C 230.040 141.066,229.917 141.135,229.841 141.088 C 229.519 140.889,227.948 143.067,227.775 143.952 C 227.743 144.116,227.650 144.400,227.568 144.583 C 227.272 145.246,227.429 147.848,227.828 148.888 C 228.240 149.963,230.185 152.093,230.607 151.931 C 230.731 151.883,230.833 151.908,230.833 151.985 C 230.833 153.000,237.154 152.376,237.854 151.293 C 237.980 151.097,237.650 150.167,237.454 150.167 C 237.377 150.167,237.360 150.092,237.417 150.000 C 237.473 149.908,237.436 149.833,237.333 149.833 C 237.231 149.833,237.193 149.758,237.250 149.667 C 237.307 149.575,237.261 149.500,237.149 149.500 C 237.036 149.500,236.994 149.451,237.054 149.390 C 237.523 148.922,236.226 148.793,235.372 149.224 C 235.122 149.351,234.812 149.417,234.685 149.372 C 234.553 149.325,234.500 149.365,234.561 149.464 C 234.620 149.559,234.574 149.619,234.459 149.595 C 234.344 149.572,233.950 149.494,233.583 149.422 C 232.536 149.215,231.333 148.251,231.333 147.618 C 231.333 147.557,232.890 147.486,234.792 147.462 L 238.250 147.417 238.244 145.583 C 238.237 143.773,237.777 142.000,237.313 142.000 C 237.232 142.000,237.185 141.934,237.208 141.854 C 237.279 141.606,236.229 140.703,235.464 140.355 C 234.567 139.946,232.667 139.697,232.667 139.988 M246.324 139.988 C 245.467 140.254,244.080 141.191,244.266 141.378 C 244.311 141.422,244.232 141.503,244.091 141.558 C 243.949 141.612,243.828 141.602,243.821 141.536 C 243.695 140.315,243.506 140.167,242.077 140.167 C 240.150 140.167,240.333 139.525,240.333 146.268 L 240.333 152.167 242.333 152.167 L 244.333 152.167 244.333 148.747 C 244.333 145.017,244.489 144.382,245.539 143.808 C 246.004 143.555,247.500 143.342,247.500 143.530 C 247.500 144.202,248.167 143.547,248.336 142.708 C 248.442 142.181,248.594 141.450,248.674 141.083 C 248.885 140.110,247.704 139.560,246.324 139.988 M283.167 139.951 C 282.057 140.357,281.165 140.862,281.267 141.027 C 281.336 141.140,281.311 141.173,281.207 141.108 C 280.708 140.800,279.007 143.276,278.941 144.404 C 278.928 144.640,278.860 144.833,278.792 144.833 C 278.723 144.833,278.667 145.025,278.667 145.260 C 278.667 145.557,278.730 145.648,278.875 145.561 C 279.014 145.478,279.007 145.531,278.852 145.721 C 278.046 146.714,280.129 151.722,281.204 151.375 C 281.275 151.352,281.333 151.406,281.333 151.494 C 281.333 152.220,285.717 152.764,286.819 152.174 C 286.998 152.078,287.308 152.000,287.508 152.000 C 288.723 152.000,289.543 150.863,288.816 150.186 C 288.623 150.006,288.506 149.793,288.556 149.711 C 288.818 149.287,287.893 148.601,287.358 148.823 C 287.069 148.943,286.833 149.090,286.833 149.151 C 286.833 149.212,286.702 149.272,286.542 149.285 C 286.381 149.298,285.954 149.342,285.591 149.383 C 284.749 149.480,283.691 149.084,283.210 148.493 C 282.376 147.469,282.288 147.500,286.054 147.500 L 289.476 147.500 289.592 146.573 C 289.710 145.627,289.641 144.900,289.263 143.125 C 289.189 142.781,289.058 142.500,288.972 142.500 C 288.885 142.500,288.859 142.427,288.914 142.337 C 289.040 142.133,287.681 140.638,287.481 140.762 C 287.400 140.812,287.333 140.770,287.333 140.668 C 287.333 140.446,286.214 139.951,286.004 140.081 C 285.923 140.131,285.809 140.096,285.752 140.003 C 285.644 139.828,283.613 139.788,283.167 139.951 M265.167 146.167 L 265.167 152.177 267.125 152.130 L 269.083 152.083 269.083 146.167 L 269.083 140.250 267.125 140.203 L 265.167 140.156 265.167 146.167 M268.958 149.042 C 268.931 150.623,268.908 149.329,268.908 146.167 C 268.908 143.004,268.931 141.710,268.958 143.292 C 268.985 144.873,268.985 147.460,268.958 149.042 M205.124 143.301 C 205.329 143.416,205.632 143.789,205.797 144.130 L 206.097 144.750 204.215 144.698 C 203.180 144.670,202.333 144.617,202.333 144.581 C 202.333 143.553,204.113 142.736,205.124 143.301 M234.364 143.462 C 234.519 143.621,234.696 143.956,234.758 144.208 L 234.869 144.667 233.096 144.667 C 231.367 144.667,231.326 144.658,231.502 144.330 C 231.601 144.145,231.629 143.901,231.564 143.788 C 231.500 143.676,231.509 143.640,231.586 143.710 C 231.663 143.779,231.881 143.693,232.071 143.518 C 232.700 142.939,233.825 142.912,234.364 143.462 M285.818 143.719 C 286.363 144.843,286.376 144.833,284.339 144.833 C 282.668 144.833,282.520 144.808,282.618 144.542 C 283.226 142.888,285.174 142.387,285.818 143.719 M191.986 145.829 C 193.758 146.338,193.836 148.664,192.091 148.948 C 191.766 149.000,191.500 149.090,191.500 149.147 C 191.501 149.204,190.976 149.225,190.334 149.195 L 189.167 149.139 189.167 147.403 L 189.167 145.667 190.293 145.667 C 190.912 145.667,191.674 145.740,191.986 145.829 M144.000 147.796 C 144.000 148.837,143.441 149.348,142.250 149.396 C 140.729 149.458,141.374 147.418,142.943 147.208 C 143.200 147.173,143.443 147.112,143.483 147.072 C 143.783 146.773,144.000 147.077,144.000 147.796 M247.392 147.849 C 245.813 148.306,245.233 150.645,246.421 151.765 C 247.740 153.008,249.612 152.644,250.262 151.018 C 250.508 150.405,250.511 150.125,250.284 149.250 C 250.182 148.856,249.414 148.000,249.163 148.000 C 249.012 148.000,248.836 147.947,248.771 147.883 C 248.587 147.698,247.965 147.683,247.392 147.849 " stroke="none" fill="#4464b4" fill-rule="evenodd"></path><path id="path1" d="M202.628 24.621 C 202.928 24.658,203.378 24.657,203.628 24.619 C 203.878 24.581,203.633 24.551,203.083 24.552 C 202.533 24.553,202.328 24.584,202.628 24.621 M173.908 41.917 C 173.908 44.942,173.930 46.203,173.958 44.719 C 173.986 43.235,173.986 40.760,173.958 39.219 C 173.931 37.678,173.908 38.892,173.908 41.917 M203.125 42.118 C 203.331 42.157,203.669 42.157,203.875 42.118 C 204.081 42.078,203.912 42.045,203.500 42.045 C 203.088 42.045,202.919 42.078,203.125 42.118 M173.944 47.778 C 173.769 47.954,173.815 49.469,174.000 49.583 C 174.104 49.648,174.167 49.307,174.167 48.677 C 174.167 47.658,174.146 47.576,173.944 47.778 M208.821 52.728 C 209.272 53.218,209.361 53.266,209.242 52.955 C 209.197 52.838,208.993 52.641,208.788 52.516 C 208.434 52.300,208.435 52.310,208.821 52.728 M237.072 87.250 C 237.072 89.450,237.096 90.327,237.125 89.199 C 237.153 88.071,237.153 86.271,237.124 85.199 C 237.095 84.127,237.072 85.050,237.072 87.250 M237.228 95.417 C 237.228 96.333,237.256 96.687,237.290 96.203 C 237.324 95.718,237.323 94.968,237.289 94.536 C 237.255 94.104,237.227 94.500,237.228 95.417 M237.071 103.750 C 237.072 105.858,237.095 106.698,237.125 105.616 C 237.154 104.533,237.154 102.808,237.124 101.782 C 237.095 100.756,237.071 101.642,237.071 103.750 M210.658 126.292 L 210.083 126.917 210.708 126.342 C 211.290 125.808,211.410 125.667,211.283 125.667 C 211.255 125.667,210.974 125.948,210.658 126.292 M125.077 144.500 C 125.077 148.671,125.098 150.377,125.125 148.292 C 125.151 146.206,125.151 142.794,125.125 140.708 C 125.098 138.623,125.077 140.329,125.077 144.500 M151.958 137.122 C 152.348 137.157,152.985 137.157,153.375 137.122 C 153.765 137.087,153.446 137.058,152.667 137.058 C 151.887 137.058,151.569 137.087,151.958 137.122 M213.129 137.122 C 213.521 137.157,214.121 137.157,214.463 137.121 C 214.804 137.085,214.483 137.057,213.750 137.057 C 213.017 137.058,212.737 137.087,213.129 137.122 M221.625 137.122 C 222.015 137.157,222.652 137.157,223.042 137.122 C 223.431 137.087,223.112 137.058,222.333 137.058 C 221.554 137.058,221.235 137.087,221.625 137.122 M268.908 146.167 C 268.908 149.329,268.931 150.623,268.958 149.042 C 268.985 147.460,268.985 144.873,268.958 143.292 C 268.931 141.710,268.908 143.004,268.908 146.167 M258.542 148.957 C 259.344 148.988,260.656 148.988,261.458 148.957 C 262.260 148.927,261.604 148.902,260.000 148.902 C 258.396 148.902,257.740 148.927,258.542 148.957 " stroke="none" fill="#446cb4" fill-rule="evenodd"></path><path id="path2" d="M225.888 39.917 C 225.889 40.558,225.919 40.800,225.955 40.455 C 225.991 40.109,225.990 39.584,225.954 39.288 C 225.917 38.992,225.887 39.275,225.888 39.917 M225.897 44.250 C 225.897 45.350,225.924 45.778,225.957 45.202 C 225.990 44.625,225.989 43.725,225.956 43.202 C 225.923 42.678,225.897 43.150,225.897 44.250 M149.627 143.451 C 149.834 143.491,150.134 143.490,150.294 143.448 C 150.453 143.406,150.283 143.374,149.917 143.375 C 149.550 143.377,149.420 143.411,149.627 143.451 M154.955 143.454 C 155.250 143.490,155.775 143.491,156.121 143.455 C 156.467 143.419,156.225 143.389,155.583 143.388 C 154.942 143.387,154.659 143.417,154.955 143.454 M210.542 143.448 C 210.702 143.490,210.965 143.490,211.125 143.448 C 211.285 143.406,211.154 143.372,210.833 143.372 C 210.512 143.372,210.381 143.406,210.542 143.448 M216.042 143.455 C 216.385 143.491,216.948 143.491,217.292 143.455 C 217.635 143.419,217.354 143.389,216.667 143.389 C 215.979 143.389,215.698 143.419,216.042 143.455 M219.127 143.451 C 219.334 143.491,219.634 143.490,219.794 143.448 C 219.953 143.406,219.783 143.374,219.417 143.375 C 219.050 143.377,218.920 143.411,219.127 143.451 M224.455 143.454 C 224.750 143.490,225.275 143.491,225.621 143.455 C 225.967 143.419,225.725 143.389,225.083 143.388 C 224.442 143.387,224.159 143.417,224.455 143.454 M272.239 147.583 C 272.239 149.967,272.263 150.918,272.291 149.698 C 272.320 148.479,272.320 146.529,272.291 145.365 C 272.263 144.202,272.239 145.200,272.239 147.583 M283.375 144.790 C 283.902 144.823,284.765 144.823,285.292 144.790 C 285.819 144.757,285.387 144.730,284.333 144.730 C 283.279 144.730,282.848 144.757,283.375 144.790 " stroke="none" fill="#4864b4" fill-rule="evenodd"></path><path id="path3" d="M225.888 39.917 C 225.889 40.558,225.919 40.800,225.955 40.455 C 225.991 40.109,225.990 39.584,225.954 39.288 C 225.917 38.992,225.887 39.275,225.888 39.917 M225.897 44.250 C 225.897 45.350,225.924 45.778,225.957 45.202 C 225.990 44.625,225.989 43.725,225.956 43.202 C 225.923 42.678,225.897 43.150,225.897 44.250 M149.627 143.451 C 149.834 143.491,150.134 143.490,150.294 143.448 C 150.453 143.406,150.283 143.374,149.917 143.375 C 149.550 143.377,149.420 143.411,149.627 143.451 M154.955 143.454 C 155.250 143.490,155.775 143.491,156.121 143.455 C 156.467 143.419,156.225 143.389,155.583 143.388 C 154.942 143.387,154.659 143.417,154.955 143.454 M210.542 143.448 C 210.702 143.490,210.965 143.490,211.125 143.448 C 211.285 143.406,211.154 143.372,210.833 143.372 C 210.512 143.372,210.381 143.406,210.542 143.448 M216.042 143.455 C 216.385 143.491,216.948 143.491,217.292 143.455 C 217.635 143.419,217.354 143.389,216.667 143.389 C 215.979 143.389,215.698 143.419,216.042 143.455 M219.127 143.451 C 219.334 143.491,219.634 143.490,219.794 143.448 C 219.953 143.406,219.783 143.374,219.417 143.375 C 219.050 143.377,218.920 143.411,219.127 143.451 M224.455 143.454 C 224.750 143.490,225.275 143.491,225.621 143.455 C 225.967 143.419,225.725 143.389,225.083 143.388 C 224.442 143.387,224.159 143.417,224.455 143.454 M272.239 147.583 C 272.239 149.967,272.263 150.918,272.291 149.698 C 272.320 148.479,272.320 146.529,272.291 145.365 C 272.263 144.202,272.239 145.200,272.239 147.583 M283.375 144.790 C 283.902 144.823,284.765 144.823,285.292 144.790 C 285.819 144.757,285.387 144.730,284.333 144.730 C 283.279 144.730,282.848 144.757,283.375 144.790 " stroke="none" fill="#4864b4" fill-rule="evenodd"></path><path id="path4" d="M225.888 39.917 C 225.889 40.558,225.919 40.800,225.955 40.455 C 225.991 40.109,225.990 39.584,225.954 39.288 C 225.917 38.992,225.887 39.275,225.888 39.917 M225.897 44.250 C 225.897 45.350,225.924 45.778,225.957 45.202 C 225.990 44.625,225.989 43.725,225.956 43.202 C 225.923 42.678,225.897 43.150,225.897 44.250 M149.627 143.451 C 149.834 143.491,150.134 143.490,150.294 143.448 C 150.453 143.406,150.283 143.374,149.917 143.375 C 149.550 143.377,149.420 143.411,149.627 143.451 M154.955 143.454 C 155.250 143.490,155.775 143.491,156.121 143.455 C 156.467 143.419,156.225 143.389,155.583 143.388 C 154.942 143.387,154.659 143.417,154.955 143.454 M210.542 143.448 C 210.702 143.490,210.965 143.490,211.125 143.448 C 211.285 143.406,211.154 143.372,210.833 143.372 C 210.512 143.372,210.381 143.406,210.542 143.448 M216.042 143.455 C 216.385 143.491,216.948 143.491,217.292 143.455 C 217.635 143.419,217.354 143.389,216.667 143.389 C 215.979 143.389,215.698 143.419,216.042 143.455 M219.127 143.451 C 219.334 143.491,219.634 143.490,219.794 143.448 C 219.953 143.406,219.783 143.374,219.417 143.375 C 219.050 143.377,218.920 143.411,219.127 143.451 M224.455 143.454 C 224.750 143.490,225.275 143.491,225.621 143.455 C 225.967 143.419,225.725 143.389,225.083 143.388 C 224.442 143.387,224.159 143.417,224.455 143.454 M272.239 147.583 C 272.239 149.967,272.263 150.918,272.291 149.698 C 272.320 148.479,272.320 146.529,272.291 145.365 C 272.263 144.202,272.239 145.200,272.239 147.583 M283.375 144.790 C 283.902 144.823,284.765 144.823,285.292 144.790 C 285.819 144.757,285.387 144.730,284.333 144.730 C 283.279 144.730,282.848 144.757,283.375 144.790 " stroke="none" fill="#4864b4" fill-rule="evenodd"></path></g></svg>